<svg xmlns="http://www.w3.org/2000/svg" viewBox="0 0 826 320"><defs><style>.cls-1{fill:#5f6ebd;}.cls-2{fill:#fff;}</style></defs><title>Asset 3</title><g id="Layer_2" data-name="Layer 2"><g id="Layer_1-2" data-name="Layer 1"><rect class="cls-1" x="253" y="-253" width="320" height="826" rx="160" transform="translate(253 573) rotate(-90)"/><path class="cls-2" d="M91.61,195.52q-9.61,0-14.92-4a20.78,20.78,0,0,1-7.37-10.83,52.23,52.23,0,0,1-2.06-15.2V133.52a55.18,55.18,0,0,1,2.06-16A19.4,19.4,0,0,1,76.69,107q5.31-3.73,14.92-3.74,8.49,0,13.46,3.13a17.43,17.43,0,0,1,7.15,8.94,39.85,39.85,0,0,1,2.18,14v7.15h-12v-6.37a68.58,68.58,0,0,0-.5-8.88,9.66,9.66,0,0,0-2.74-6q-2.24-2.11-7.48-2.12c-3.57,0-6.18.77-7.82,2.29a11.14,11.14,0,0,0-3.18,6.48,57.18,57.18,0,0,0-.73,9.77v35.86a41,41,0,0,0,1.12,10.78,9.45,9.45,0,0,0,3.68,5.65,12.62,12.62,0,0,0,6.93,1.67c3.43,0,5.88-.76,7.37-2.29a10.93,10.93,0,0,0,2.8-6.31,69.57,69.57,0,0,0,.55-9.38v-6.71h12v6.71a48,48,0,0,1-2,14.57,18.66,18.66,0,0,1-6.93,9.84Q100.54,195.52,91.61,195.52Z"/><path class="cls-2" d="M149.81,195.52q-9.83,0-15.08-3.91a19.43,19.43,0,0,1-7.15-11,64.38,64.38,0,0,1-1.9-16.59V104h12.06v60.55a65.23,65.23,0,0,0,.79,10.61,14.06,14.06,0,0,0,3.4,7.6q2.63,2.79,7.88,2.79t7.93-2.79a14.32,14.32,0,0,0,3.35-7.6,66.37,66.37,0,0,0,.79-10.61V104h12v60a64.82,64.82,0,0,1-1.9,16.59,19.57,19.57,0,0,1-7.1,11Q159.64,195.52,149.81,195.52Z"/><path class="cls-2" d="M187.12,194.52V104h12.62v81.44h23.13v9.05Z"/><path class="cls-2" d="M239,194.52v-81.1H223.65V104h42.79v9.39H251.58v81.1Z"/><path class="cls-2" d="M298.5,195.52q-9.84,0-15.08-3.91a19.43,19.43,0,0,1-7.15-11,64.38,64.38,0,0,1-1.9-16.59V104h12.06v60.55a65.23,65.23,0,0,0,.79,10.61,14,14,0,0,0,3.4,7.6q2.63,2.79,7.88,2.79c3.57,0,6.22-.93,7.93-2.79a14.32,14.32,0,0,0,3.35-7.6,66.43,66.43,0,0,0,.78-10.61V104h12v60a64.82,64.82,0,0,1-1.9,16.59,19.57,19.57,0,0,1-7.1,11Q308.33,195.52,298.5,195.52Z"/><path class="cls-2" d="M335.81,194.52V104H354q9,0,15,2.4a16.82,16.82,0,0,1,8.77,7.71q2.85,5.31,2.85,13.91a38.15,38.15,0,0,1-1.12,9.55,18.46,18.46,0,0,1-3.58,7.26,13.81,13.81,0,0,1-6.48,4.3l12.85,45.36H370.1l-11.84-42.45h-9.83v42.45ZM348.43,143h4.81a23.86,23.86,0,0,0,8.71-1.34,9,9,0,0,0,4.92-4.58,21.3,21.3,0,0,0,1.56-9q0-7.94-2.91-11.45T354,113.08h-5.59Z"/><path class="cls-2" d="M388.87,194.52,408.09,104h12.17l19.33,90.49H427.64l-4.14-22.79H405.07l-4.36,22.79Zm17.88-31.84h15.08l-7.6-40.77Z"/><path class="cls-2" d="M448.75,194.52V104h12.62v81.44H484.5v9.05Z"/><path class="cls-2" d="M518.68,194.52V104h35.07v9.39H531.3v29.93h18.21v8.94H531.3v33.18H554v9.05Z"/><path class="cls-2" d="M579.9,194.52,559.68,104h11.84l14.3,66.69L599.44,104H611l-20,90.49Z"/><path class="cls-2" d="M620.56,194.52V104h35.07v9.39H633.18v29.93h18.21v8.94H633.18v33.18h22.68v9.05Z"/><path class="cls-2" d="M666,194.52V104h8.61l25.69,60.1V104h10.5v90.49h-8l-26-61.78v61.78Z"/><path class="cls-2" d="M735,194.52v-81.1h-15.3V104h42.78v9.39H747.57v81.1Z"/></g></g></svg>