<svg xmlns="http://www.w3.org/2000/svg" viewBox="0 0 5797.43 5854.61"><defs><style>.cls-1{opacity:0.44;}.cls-2{fill:#0a1559;}</style></defs><title>Asset 2</title><g id="Layer_2" data-name="Layer 2"><g id="Layer_1-2" data-name="Layer 1"><g class="cls-1"><path class="cls-2" d="M4411.12,5452.56c-1348,805.89-3140.85,373.78-3991.93-1058.91-814.45-1371-418.67-3168,983.54-3998.91C2748.49-402.73,4533.4,34.79,5380.37,1466.13,6193.66,2840.55,5789.66,4618.9,4411.12,5452.56ZM1736.2,3140.07c13.94-6.32,14.65-7.64,10.27-33.69-18.39-109.49-22.67-219.31-8.74-328.82,3.89-30.63-4.1-40.88-33.65-48.47-348.83-89.57-697.28-180.8-1045.93-271.14-20.28-5.25-31.71-9.76-25.64-36.17,41.23-179.32,94.4-354.29,173.21-520.07,10.2-21.44,6.11-31.83-14.32-43-90.51-49.7-180.79-99.89-270-151.93-24.19-14.11-32.89-8.83-43.92,14.5-162.62,343.95-247.27,707.84-258,1091.13-.69,24.84,8.39,28.5,29.69,28.19,170.93-2.53,341.89-4.14,512.84-5.89,41.74-.43,42.28-.2,42.92,42,2.38,158.68,16.2,316.26,51.57,471.87,8.2,36.07,8.07,36.5,42.12,27q314.53-88,629-176.36C1597.19,3179.6,1666.67,3159.74,1736.2,3140.07ZM3129,4101.63c-8.49-13.87-20.63-8.06-31.26-6.45-109,16.54-218.58,19.27-328.19,2.48-30.25-4.63-38.5,5.57-44.88,32.69-82.37,350.56-166.1,700.77-248.6,1051.3-5.92,25.16-14,31.48-40.35,24.83-177.4-44.72-350.57-101.75-515.27-184.07-20.6-10.3-29.81-5.86-39.92,13.38-46.17,87.94-93.64,175.18-140.78,262.6-20.55,38.12-20.75,38.2,18.66,57.5q511,250.29,1074.61,276.3c24.37,1.12,30.22-4.94,29.35-29.58-6.23-175.55-10.35-351.15-16.48-526.71-.85-24.51,3.89-37,30.19-33.88,7.54.9,15.26-.13,22.9-.1,155.17.55,308.8-12.39,460.44-43.81,21.58-4.47,30.55-10.13,22.94-35.81q-123.77-417.75-245.46-836.1C3134.41,4117.85,3131.54,4109.63,3129,4101.63ZM2666.45,1749c7.08,14.78,8.69,15.38,34.41,11.61,109-16,218.6-19.08,328.23-2.19,29,4.46,37.11-4.7,43.35-31.22,82.65-351.47,166.67-702.58,249.55-1054,5.57-23.59,12.6-30.7,38.29-24.24,178.35,44.89,352.3,102.57,518,185,19,9.47,28.39,6,38.13-12.44,48.61-92,97.78-183.81,148.32-274.76,12.07-21.72,7.76-30-13.79-40.74-345.25-171.71-709-264.22-1090.54-282.38-20.28-1-26,4.51-25.25,25.23,6,176.52,10.26,353.07,16.64,529.58,1,27.71-6,36.43-34,36-160.9-2.19-320.31,10.51-477.72,42.76-25.85,5.3-31.67,13.17-23.69,39.93,63.58,213.43,125.57,427.32,188.11,641.05C2625.11,1608.87,2646,1679.44,2666.45,1749ZM4059,2716.39c-12.82,6-11.08,16-9.43,25.65,20.36,118.14,23.59,236.42,8.82,354.74-1.81,14.53,2.7,21.94,16.83,24.48,7.52,1.36,14.88,3.8,22.32,5.73l1034.57,269.23c38.59,10,38,9.93,29.7,47.21-39.61,177.8-93.78,350.42-171.75,514.44-9.75,20.51-2,28.62,15,38.06,91.17,50.53,182.33,101.13,272.4,153.65,23.27,13.58,31.37,8.64,42-13.87,162.84-344.89,247.86-709.67,258.42-1093.95.63-22.92-6.4-27.19-27.44-26.85-163.28,2.67-326.59,4.94-489.93,5.64-76.14.33-67.1,16.38-68.85-65.46-3.23-151-18.21-300.67-51.08-448.7-8-36.11-7.65-36.18-42.93-26.26q-405,114-810.11,228C4077.5,2710.92,4067.49,2713.92,4059,2716.39ZM832,4299.74l.28.47c-44,26.43-87.56,53.5-132.07,79-19.14,11-23.15,22.12-9.59,41.07,35,48.83,69.51,97.89,106.2,145.5q295.07,382.88,700.48,642.24c30.55,19.61,30.55,19.62,47.89-12.63q120.78-224.55,241.54-449.1c17.94-33.36,18.32-34,51.49-14.82,140.72,81.48,286,152.26,440.25,202.9,17.68,5.81,29.34,9.24,35.1-15.27q100.88-429,203.57-857.62c3.75-15.72,1.84-24.5-14.91-30.85a1159.77,1159.77,0,0,1-306.4-172.83c-14.82-11.63-24.25-9.36-36.14,3.69-29.45,32.32-60.28,63.34-90.48,95q-327.9,343.43-655.68,687c-14.15,14.84-24.26,25.61-45.88,4.9-134.59-128.94-259.19-266.44-363.76-421.48-11.66-17.28-21.91-17.75-37.67-8C921.8,4246.24,876.81,4272.82,832,4299.74Zm4416.9-2628c-11.31-19.69-11.38-19.79-44.45.13q-213.6,128.7-427.13,257.49c-37.84,22.8-38.55,23.13-60.9-15.46C4636,1775,4544.59,1644.28,4437,1525c-16.6-18.41-26.44-22.21-44.92-2.73q-296.41,312.39-594.55,623.08c-16.44,17.15-14.45,29,.1,46.18,71.21,84.26,126.67,178.39,170.38,279.5,15.84,36.66,15.32,36.8,52.08,26.47q516.14-145,1032.14-290.56c23.41-6.63,31-1.33,38.05,21.72,54.42,178.41,96.17,359.1,109.54,545.07,1.48,20.68,9.92,25.86,28.79,25.54,104-1.74,208.12-3.36,312.21-3.19,26.2,0,31.25-8.71,29.22-33.86a2806.45,2806.45,0,0,0-103.87-561.1C5414,2022.2,5343.87,1850.2,5248.94,1671.74ZM543.17,4174.57c16.66,28.89,16.71,29,50.09,8.88q212.47-128,424.89-256c39.9-24,40.6-24.39,64.67,17.08,80.11,138,171.18,267.85,277.71,386.79,17.68,19.74,28.24,18.85,45.11.85,74.12-79.11,149.27-157.25,224.16-235.63q184.28-192.86,368.91-385.35c15.34-16,16.72-27,1.13-45.93a1123.44,1123.44,0,0,1-172.11-285.36c-12-28.89-25-29.36-49.73-22.35-343.14,97-686.58,193-1029.67,290.25-24.81,7-34.74,3.15-42.7-23.12-53.54-176.74-93.74-355.86-108.3-539.72-1.8-22.72-9.47-29.33-31.43-28.88-102.16,2.09-204.36,3.68-306.58,3.19-28.91-.13-34.29,9.41-31.84,37,11.28,127.27,29.72,253.45,57.36,378.42C338.44,3717.06,424,3948.05,543.17,4174.57ZM4176.76,5331.24c29.46-16.95,29.46-16.95,7.57-53.28Q4053.59,5061,3922.88,4844.13c-23.29-38.68-23.63-39.47,14.26-61.34,136.92-79,265.36-169.67,382.06-276.88,16.26-14.94,18.32-24.2,1-41q-315.63-306.59-629.87-614.64c-15.74-15.42-26.32-16.06-43.12-1.82-83.9,71.08-177.09,127.84-278.9,169-29,11.7-30.63,24.59-22.66,51.6q154.42,523.84,307.46,1048.08c6.09,20.72,5,31-18,37.66-175.77,51.2-353.93,90.27-537.82,100.44-23.22,1.28-28.39,10.46-27.58,31.87,3.94,104.16,7.65,208.36,9.29,312.54.43,27.06,9.63,31.62,34,30,159.35-10.65,316.41-34.22,471-72.52C3788.9,5506.29,3984.51,5431.61,4176.76,5331.24Zm119-291.29.45-.27c27,44.92,54.76,89.4,80.67,134.94,11.82,20.77,23.26,24.88,42.79,10.87,59.38-42.58,118.55-85.34,175.46-131.3q352.5-284.7,590.76-672.06c12.43-20.1,11.42-29.52-10.57-41.7-151.95-84.17-303.19-169.7-454.68-254.74-34.51-19.37-35.32-19.71-16.25-53.44,78.71-139.28,144.21-284.55,192.5-438,7.64-24.24,4-33.17-21.5-39.72Q4454,3446.3,4033.25,3335.6c-21.3-5.6-30.38-1.16-37.72,19.47a1092,1092,0,0,1-160.12,296.27c-13.48,17.73-11.3,28.39,4.52,43.49,70,66.85,139,134.9,208.3,202.5q290.2,282.91,580.55,565.69c13.18,12.82,21.84,22.6,5.42,40.12-125.12,133.55-258.57,257.48-409.89,360.6-20.31,13.84-20.49,25-8.39,44.15C4243.36,4951.38,4269.22,4995.87,4295.73,5040ZM4965,1556l-.26-.44c43.15-25.94,85.64-53.07,129.71-77.35,23.87-13.15,25.14-26.21,9.68-47.36-44-60.19-86.78-121.26-133.52-179.5q-286.55-357-670.2-603.15c-30.45-19.56-30.71-19.41-48.11,12.87Q4134,880.48,4015.89,1099.93c-27.26,50.58-20.15,46.26-66.13,19.58-137.37-79.69-279.74-147.44-429.83-198-22.53-7.59-31.66-4.69-37.26,19.91-27.28,119.86-56.34,239.27-84.77,358.84q-58,243.81-115.9,487.63c-3.46,14.58-10.53,28.59,12.16,37.13,111.54,42,214.36,100.64,309,174.19,12.08,9.39,21.24,9.38,31.92-2.36,24.95-27.42,51-53.77,76.64-80.58q337.71-353.77,675.21-707.75c13.29-14,23.15-19.15,39.83-3.21,134,128.08,258.54,264.45,363.23,418.17,14.44,21.21,25.29,23.89,45.78,10.73C4878.09,1607,4921.8,1581.94,4965,1556ZM1612.55,529.23c-21,11.94-21,11.95,0,46.83Q1738.75,785.52,1864.86,995c36.53,60.92,40.84,51.79-19.74,87.09-131.69,76.74-254.55,165.34-367.3,268.2-17.09,15.59-16.83,25.61-.06,41.38,48.65,45.75,96.16,92.75,144,139.39q242.26,236.26,484.3,472.75c14,13.71,24.58,20.78,43,5a1014,1014,0,0,1,278.48-169.56c29.69-12.11,32.25-25,23.84-53.46Q2298.15,1267.7,2147,749.05c-11.8-40.28-11.64-39.53,27.52-51,173-50.54,348.63-87.71,529.61-97.78,18.5-1,24.38-8.08,23.72-26.55q-5.79-162-9.74-324.12c-.46-19.07-6.63-25.54-25.7-23.5-65.38,7-131.22,10.71-196.33,19.41C2189.2,286.51,1899,378.82,1612.55,529.23Zm-110.7,285.92-.52.31c-27-44.91-54.8-89.37-80.65-134.93-12.13-21.4-24-23.61-43-10.06-70.27,50.2-139.71,101.37-206.2,156.67-221.8,184.46-407.41,400.75-560,646.63-13.34,21.48-8.26,30.29,12.16,41.66,153.45,85.45,306.16,172.29,459.7,257.57,21.67,12,26.6,21.24,13.65,44C1016.35,1958.33,949.11,2106,900.3,2262.38c-7.08,22.65-4.36,31.78,20.12,38.08q421.26,108.48,842,219.24c22,5.8,32,2.27,39.87-19.94,38-107.34,92.29-205.78,160.39-296.12,12.36-16.39,11.35-26.29-4-40.9-73.5-70.22-145.8-141.72-218.57-212.72q-283.82-276.9-567.64-553.78c-13-12.71-28.72-22.88-8.62-44.29,125.23-133.44,258.8-257.16,410-360.43,18.35-12.53,21.23-22.81,9.26-41.81C1555.22,905.38,1528.85,860.07,1501.85,815.15Zm901.21,1284.48q-37,23.79-73.79,48.16c-49.27,32.86-39.71,34.42,1,74.82,12.8,12.7,23.29,13.18,37,1.74,42.52-35.52,91.45-61.23,139.72-87.57,40.75-22.24,41.47-20.94,27.63-65.38-1.15-3.69-2.71-7.3-3.54-11.06-4.2-19-15.14-19.86-29.93-12.58C2467.93,2064.1,2433.67,2078.39,2403.06,2099.63ZM3399.8,3752.29c13.56-8.16,30.81-18.21,47.69-28.83,6.38-4,11.49-10.1,17.92-14,61.4-37.37,34.78-40.78-.11-77.76-11.84-12.55-22.37-10.67-34.71-.43-43.38,36-93.26,62-142.25,89.1-38.15,21.07-38.84,19.83-25.89,63.84.82,2.79,1.79,5.55,2.39,8.38,4.53,21.52,16.23,23.09,33.75,14.49C3331.84,3790.75,3365.8,3775.85,3399.8,3752.29Zm312-1306a780.48,780.48,0,0,0-59.69-90c-23.49-30.67-25.27-31.51-51-4.35-4.57,4.83-8.77,10.1-13.76,14.44-14.74,12.85-12.56,24.36-.49,39.33,36.07,44.71,63.5,95.16,90.25,145.68,19.63,37.08,18.14,37.88,56.82,26.71,4.56-1.32,9-3.35,13.61-4.2,20.81-3.84,23.8-14.78,14.49-33.19C3745.48,2507.91,3731.21,2473.85,3711.82,2446.31ZM2161.75,3374c-14-23.26-30.83-45.33-41.3-70.06-17.25-40.7-15-37.83-59.87-25.55-5.5,1.51-10.89,3.36-16.39,4.9-14.69,4.09-17,13.59-10.92,26.59,28.6,61.66,60.61,121.44,102.34,175.34,37.18,48,41.8,47.37,78.79-.27,8.54-11,8.81-20.07-.76-30.48C2191.78,3430.75,2177.93,3401.55,2161.75,3374Zm1609.36-576.72c-18.57,5.8-12.08,20.27-10.8,31.64,5.8,51.82,9.46,103.62,6.7,155.64-3.43,64.69-13.34,50.74,50,69.88,23.21,7,27.72-2,29.38-22.31a1028.46,1028.46,0,0,0-2.32-193.14C3837.3,2775.19,3828,2769.94,3771.11,2797.31Zm-1024.66-820c-9,4-9.73,10.9-7.37,19.2,3.16,11.13,7,22.17,9.08,33.5,4.14,22,14.94,29.43,37.85,26.31a721,721,0,0,1,165.18-3.1c42.21,4,42.22,3.94,52.14-37.71a37.47,37.47,0,0,1,1.38-5.57c10.51-25.22,2.31-35.62-25.07-38-71.54-6.13-142.71-6.1-213.74,2.15C2759.32,1974.87,2752.81,1976.23,2746.45,1977.29ZM3420.3,2221c9.27-9.5,17.92-19.74,27.95-28.34,18.58-15.93,17.13-27.55-3.82-41.88-52.66-36-106.09-70.71-164.62-95.56-64.48-27.37-51.57-37.62-70.6,38.7-3.08,12.33.4,20.23,12.37,25.2,63.29,26.28,121.93,61.23,178.11,100.7C3406.21,2224.41,3413.14,2228,3420.3,2221ZM1965,2793.12c-13.45,11.3-12.47,20.44-13.34,28.7-7.06,67.2-5,134.46,2.42,201.78,6,54.25,5.53,53.43,58.17,39.73,21.2-5.52,29.24-14.44,25.28-37.76-9.91-58.3-9.77-117.07-5.92-175.75,1.1-16.76,7.48-34.75-19-40.11C1995,2806.14,1978.27,2797.88,1965,2793.12Zm840.82,1010.35c-9.13,14.08-8.49,32.29-14.52,48.14-8.91,23.38.85,29.81,23,31.91,64.84,6.13,129.47,7.11,194,.7,69.36-6.88,52.06-6.35,39.77-60.82-5.06-22.4-16.07-26.56-36.56-23.61-59.53,8.58-119.55,7.24-179.61,2.08C2823.56,3801.14,2814.93,3798.5,2805.82,3803.47Zm802.16-336c8.37,8.26,16.68,16.35,24.87,24.55,27,27.09,28.25,27.12,49.94-5.1,34.07-50.59,64.52-103.31,88.1-159.93,26.49-63.61,29.34-49.89-37.14-69-14.25-4.09-23.21-1.68-29,13.26-24.05,61.67-56.56,118.67-93.54,173.11C3606.43,3451.37,3600.48,3458.52,3608,3467.47ZM2371,3640.55c-3.48,3.62-12,14-22.05,22.57-19.05,16.29-16,28.33,4.24,42.1,52.72,35.91,106,70.77,164.72,95.58,64.19,27.15,51.19,37.4,70.33-39.21,3.14-12.57-.9-20.06-12.66-25a869.68,869.68,0,0,1-178.17-100.75C2390.87,3631,2384,3627.78,2371,3640.55ZM2188.12,2387.3c-9.57-9.52-20-18.32-28.54-28.7-17-20.59-28.27-15.08-41.18,4.34-35.34,53.13-68.23,107.65-92.46,167-24.82,60.79-30.66,48.53,36.13,67.45,15.19,4.3,24.79,2.45,31.26-13.85a821.39,821.39,0,0,1,91.92-170.42C2190.72,2405.35,2197.29,2397.39,2188.12,2387.3Z"/></g></g></g></svg>