<svg xmlns="http://www.w3.org/2000/svg" viewBox="0 0 377.75 180.5"><defs><style>.cls-1,.cls-2{fill:#6664b0;}.cls-1{stroke:#6664b0;stroke-miterlimit:10;stroke-width:2px;}</style></defs><title>Register BIG</title><g id="Layer_2" data-name="Layer 2"><g id="Layer_1-2" data-name="Layer 1"><path class="cls-1" d="M96.42,163.12c-1.4-.35-5-.58-5.74-1.6-1.25-1.72-.69-3.94-.94-6.33-.46,0-2.09-.1-3.71-.11H38.46c-1.39,0-3.14.24-4.08-.19-1.37-.61-3-1.76-2.93-2.62s2-1.94,3.52-2.22a38.66,38.66,0,0,1,6.75-.13q148.19,0,296.39,0c3.27,0,8.05-.8,8.19,2.38.16,3.39-4.75,2.74-8.25,2.75-17.06,0-34.13,0-49.93,0-.51,2.5-.29,4.93-1.73,6.88-.65.89-4.6.84-6.23,1.09,2.13-1.27,5.37-2.33,6.12-3.86,1.11-2.24-2.63-4-8.15-4.05-17.43-.09-34.85-.06-52.28-.06H104.58c-1.74,0-3.49,0-5.22,0-3.86.18-8,.77-7.81,3.6C91.68,160.25,94.74,161.68,96.42,163.12Z"/><path class="cls-1" d="M19.32,145.79C8.19,145.7,3.13,148,3.73,152.68c.67,5.23,6.93,7,20.35,5.93-7,9.07-6.66,10.67,2.25,11.88-6.73,1.34-8.44,0-9.56-7.42-7.54,2-10.82,6.89-7.39,11s12.19,5.52,18.52,2.87A31.62,31.62,0,0,0,36,171.57c3.38-2.86,6.09-6,9.42-8.93,2.79-2.41,6.54-4.06,12-3.79-7.65,1.45-10,5.72-13.95,9.26a61.58,61.58,0,0,1-12.25,9.06c-2.71,1.46-7.31,2-11.13,2.13-5.78.21-10.55-1.5-13-4.91-2.61-3.61-1.39-7,2.71-9.95,1.67-1.19,3.75-2.17,6-3.45-8.08-.84-13.86-3-14.73-8.31-.49-3,.88-5.64,5.22-7.27A17.35,17.35,0,0,1,19.32,145.79Z"/><path class="cls-1" d="M360.36,162.73c.91,6.89-1.28,8.75-9.19,7.77,4.6-.34,8.28-1.44,7.13-4.64-.88-2.46-2.8-4.79-4.09-6.9,3.79-.11,8.43.18,12.67-.5,4.83-.77,7.08-3.33,7-6.47-.09-4.52-5-6.54-14.5-6.07a14.12,14.12,0,0,1,11-.92c4.65,1.51,6.72,4.06,6.34,7.23-.65,5.4-6.24,7.88-14.93,8.76l3.81,2c6.32,3.37,8.08,8.35,4.33,12.19s-12,5.52-19.31,3.36a43.88,43.88,0,0,1-11.29-5.49c-2.6-1.67-4-4.05-6.23-5.95-3.61-3-7.52-5.93-10.58-8.32a14.07,14.07,0,0,1,9.55,3.75c3.69,3.13,6.5,6.68,10.37,9.71a29.64,29.64,0,0,0,10,5.38c6.62,1.85,13.89-.4,16.37-4.32S368,165,360.36,162.73Z"/><path class="cls-1" d="M281.33,17.37c1.4.36,5,.58,5.74,1.61,1.25,1.72.69,3.94.94,6.32.46,0,2.09.11,3.71.11h47.57c1.39,0,3.14-.23,4.08.19,1.37.62,3,1.76,2.93,2.63s-2,1.94-3.52,2.22a39.69,39.69,0,0,1-6.75.12q-148.18,0-296.39,0c-3.27,0-8,.8-8.19-2.37-.16-3.39,4.75-2.74,8.25-2.75,17.06,0,34.13,0,49.93,0,.51-2.5.29-4.92,1.73-6.87.65-.89,4.6-.85,6.23-1.1-2.13,1.27-5.37,2.33-6.12,3.87-1.11,2.24,2.63,4,8.15,4,17.43.1,34.85.06,52.28.06H273.17c1.74,0,3.49,0,5.22,0,3.86-.18,8-.76,7.8-3.6C286.07,20.25,283,18.81,281.33,17.37Z"/><path class="cls-1" d="M358.43,34.7c11.13.1,16.19-2.24,15.59-6.88-.67-5.23-6.93-7-20.35-5.93,7-9.07,6.66-10.67-2.25-11.88,6.73-1.34,8.44,0,9.56,7.42,7.54-2,10.82-6.9,7.39-11S356.18.92,349.85,3.57a31.59,31.59,0,0,0-8.13,5.35c-3.38,2.87-6.09,6-9.42,8.93-2.79,2.42-6.54,4.06-12,3.8,7.65-1.45,10.05-5.72,13.95-9.27a62.07,62.07,0,0,1,12.25-9.06c2.7-1.46,7.31-2,11.13-2.13,5.78-.21,10.55,1.51,13,4.92,2.61,3.61,1.39,7-2.71,9.94-1.67,1.2-3.75,2.18-6,3.46,8.08.83,13.86,3,14.72,8.31.5,3-.87,5.64-5.21,7.27A17.35,17.35,0,0,1,358.43,34.7Z"/><path class="cls-1" d="M17.39,17.77C16.48,10.88,18.67,9,26.58,10c-4.6.34-8.28,1.43-7.13,4.64.88,2.46,2.8,4.78,4.09,6.89-3.79.12-8.43-.17-12.67.5-4.83.77-7.08,3.34-7,6.47.09,4.53,5,6.55,14.49,6.08-2.76,1.69-7.21,2.12-11,.91C2.73,34,.66,31.44,1,28.27c.65-5.4,6.24-7.88,14.93-8.76l-3.81-2C5.84,14.12,4.07,9.14,7.83,5.31S19.82-.22,27.14,2A44,44,0,0,1,38.43,7.44c2.6,1.67,4,4.05,6.23,6,3.61,3,7.52,5.92,10.58,8.31A14,14,0,0,1,45.69,18c-3.7-3.13-6.5-6.67-10.37-9.7a29.47,29.47,0,0,0-10-5.38C18.71,1,11.45,3.26,9,7.19S9.74,15.55,17.39,17.77Z"/><path class="cls-2" d="M54.44,120.42V57.33h12.7A27.87,27.87,0,0,1,77.57,59a11.65,11.65,0,0,1,6.12,5.37,20.55,20.55,0,0,1,2,9.7,26.46,26.46,0,0,1-.78,6.66A12.84,12.84,0,0,1,82.4,85.8a9.65,9.65,0,0,1-4.52,3l9,31.62H78.35L70.1,90.82H63.24v29.6Zm8.8-35.9h3.35a16.69,16.69,0,0,0,6.08-.94,6.29,6.29,0,0,0,3.42-3.19,14.78,14.78,0,0,0,1.09-6.31q0-5.53-2-8c-1.35-1.63-4-2.45-8-2.45h-3.9Z"/><path class="cls-2" d="M94.86,120.42V57.33h24.46v6.54H103.67V84.75h12.69V91H103.67v23.13h15.81v6.31Z"/><path class="cls-2" d="M141.6,121.2q-5.92,0-9.47-2.53a14.23,14.23,0,0,1-5.14-7.36A37.35,37.35,0,0,1,125.4,99.7V78.6a42,42,0,0,1,1.44-11.8A13.25,13.25,0,0,1,132,59.36q3.69-2.58,10.32-2.57a19.86,19.86,0,0,1,9.54,2,11.61,11.61,0,0,1,5.26,6.08,28,28,0,0,1,1.63,10.32v2.34h-8.25v-2a34.25,34.25,0,0,0-.55-6.74,6.25,6.25,0,0,0-2.22-3.89q-1.68-1.29-5.26-1.29-3.88,0-5.64,1.79a8.37,8.37,0,0,0-2.18,4.87,50.28,50.28,0,0,0-.43,7v23.37a36.28,36.28,0,0,0,.66,7.55,7.52,7.52,0,0,0,2.53,4.52,8.34,8.34,0,0,0,5.3,1.48,7.77,7.77,0,0,0,5.29-1.63,8.59,8.59,0,0,0,2.57-4.83,37.65,37.65,0,0,0,.71-8V95.42h-8V89.19h16v31.23h-5.53l-.86-7.24a13.21,13.21,0,0,1-3.89,5.76A10.92,10.92,0,0,1,141.6,121.2Z"/><path class="cls-2" d="M168.7,120.42V57.33h8.65v63.09Z"/><path class="cls-2" d="M202.43,121.12a16.51,16.51,0,0,1-9.08-2.33,14.81,14.81,0,0,1-5.49-6.47,26.94,26.94,0,0,1-2.18-9.58l7.79-2.1a35.7,35.7,0,0,0,1.05,6.46,11.54,11.54,0,0,0,2.69,5.1,6.78,6.78,0,0,0,5.22,2,6.67,6.67,0,0,0,5.18-1.91,7.82,7.82,0,0,0,1.75-5.49,11.24,11.24,0,0,0-2-6.89,36.66,36.66,0,0,0-4.9-5.26l-10.6-9.35a17.63,17.63,0,0,1-4.59-6,19.13,19.13,0,0,1-1.48-8q0-6.93,4-10.75t10.83-3.81a20.3,20.3,0,0,1,6.58,1,11.57,11.57,0,0,1,4.75,3,14.88,14.88,0,0,1,3,5.1,29.4,29.4,0,0,1,1.52,7.2l-7.48,2a31,31,0,0,0-.94-5.72,8.44,8.44,0,0,0-2.45-4.21,7.22,7.22,0,0,0-5-1.6,7.12,7.12,0,0,0-5.11,1.75,6.86,6.86,0,0,0-1.83,5.18,10.25,10.25,0,0,0,1,4.76,14,14,0,0,0,3.15,3.81l10.67,9.35a33.48,33.48,0,0,1,6.31,7.44,18.76,18.76,0,0,1,2.73,10.24,15.88,15.88,0,0,1-1.95,8.06,13.15,13.15,0,0,1-5.33,5.18A16.44,16.44,0,0,1,202.43,121.12Z"/><path class="cls-2" d="M231.32,120.42V63.87H220.65V57.33h29.83v6.54H240.13v56.55Z"/><path class="cls-2" d="M256.56,120.42V57.33H281v6.54H265.36V84.75h12.7V91h-12.7v23.13h15.81v6.31Z"/><path class="cls-2" d="M288.26,120.42V57.33H301A27.87,27.87,0,0,1,311.39,59a11.61,11.61,0,0,1,6.12,5.37,20.55,20.55,0,0,1,2,9.7,27,27,0,0,1-.77,6.66,12.72,12.72,0,0,1-2.5,5.06,9.62,9.62,0,0,1-4.51,3l9,31.62h-8.49l-8.25-29.6h-6.86v29.6Zm8.8-35.9h3.35a16.69,16.69,0,0,0,6.08-.94,6.25,6.25,0,0,0,3.42-3.19A14.78,14.78,0,0,0,311,74.08q0-5.53-2-8c-1.35-1.63-4-2.45-8-2.45h-3.9Z"/></g></g></svg>