<svg xmlns="http://www.w3.org/2000/svg" viewBox="0 0 491.91 156.33"><defs><style>.cls-1,.cls-2{fill:#6664b0;}.cls-1{stroke:#6664b0;stroke-miterlimit:10;stroke-width:2px;}</style></defs><title>What will you get</title><g id="Layer_2" data-name="Layer 2"><g id="Layer_1-2" data-name="Layer 1"><path class="cls-1" d="M125.42,141.17c-1.84-.31-6.51-.5-7.49-1.39-1.63-1.48-.91-3.41-1.22-5.46-.61,0-2.73-.1-4.84-.1h-62c-1.81,0-4.09.2-5.32-.16-1.78-.54-3.93-1.53-3.82-2.27s2.66-1.68,4.59-1.92a75.28,75.28,0,0,1,8.8-.11q193.22,0,386.44,0c4.27,0,10.5-.69,10.69,2,.2,2.93-6.2,2.37-10.76,2.38-22.25,0-44.5,0-65.11,0-.66,2.16-.38,4.26-2.25,5.95-.85.76-6,.72-8.12.94,2.77-1.1,7-2,8-3.34,1.45-1.93-3.44-3.47-10.63-3.5-22.72-.08-45.44,0-68.16,0H136.05c-2.27,0-4.55,0-6.81,0-5,.15-10.48.66-10.17,3.11C119.23,138.68,123.22,139.93,125.42,141.17Z"/><path class="cls-1" d="M24.89,126.19c-14.51-.09-21.12,1.94-20.33,5.95.88,4.52,9,6.1,26.53,5.13C22,145.11,22.4,146.49,34,147.54c-8.78,1.16-11,0-12.47-6.41-9.83,1.74-14.1,6-9.64,9.5s15.9,4.77,24.15,2.47a46.73,46.73,0,0,0,10.6-4.62c4.41-2.48,7.94-5.22,12.29-7.72,3.63-2.09,8.52-3.51,15.63-3.28-10,1.25-13.11,4.94-18.19,8a87.34,87.34,0,0,1-16,7.83c-3.53,1.26-9.53,1.72-14.51,1.84-7.54.18-13.76-1.3-17-4.25-3.39-3.12-1.8-6,3.54-8.6,2.17-1,4.88-1.88,7.82-3-10.53-.73-18.07-2.61-19.2-7.19-.64-2.6,1.14-4.88,6.8-6.28A33.33,33.33,0,0,1,24.89,126.19Z"/><path class="cls-1" d="M469.54,140.83c1.19,6-1.66,7.56-12,6.72,6-.3,10.79-1.24,9.29-4-1.15-2.13-3.65-4.14-5.33-6,4.94-.1,11,.16,16.52-.43,6.29-.66,9.23-2.88,9.15-5.59-.12-3.91-6.48-5.66-18.9-5.26,3.61-1.46,9.41-1.83,14.29-.78,6.07,1.3,8.76,3.5,8.27,6.24-.84,4.67-8.13,6.82-19.47,7.57l5,1.74c8.23,2.92,10.54,7.23,5.64,10.54s-15.64,4.78-25.18,2.91a72.69,72.69,0,0,1-14.72-4.75c-3.39-1.44-5.17-3.5-8.12-5.15-4.71-2.62-9.8-5.12-13.79-7.18a24.29,24.29,0,0,1,12.45,3.24c4.81,2.7,8.48,5.77,13.52,8.39a46.9,46.9,0,0,0,13,4.65c8.64,1.6,18.1-.34,21.34-3.74S479.52,142.75,469.54,140.83Z"/><path class="cls-1" d="M363,15.16c1.78.3,6.32.5,7.27,1.38C371.8,18,371.1,20,371.41,22c.58,0,2.64.1,4.7.1H436.3c1.76,0,4-.2,5.17.16,1.73.53,3.81,1.52,3.71,2.27s-2.58,1.68-4.46,1.92a73,73,0,0,1-8.54.11q-187.53,0-375.07,0c-4.15,0-10.19.69-10.37-2-.2-2.93,6-2.37,10.44-2.38,21.59,0,43.19,0,63.19,0,.65-2.16.37-4.26,2.19-5.95.82-.77,5.81-.73,7.87-.94-2.69,1.09-6.78,2-7.74,3.34C121.29,20.5,126,22,133,22.06c22.05.09,44.1.05,66.15.06H352.63c2.21,0,4.42,0,6.61,0,4.88-.15,10.17-.66,9.87-3.11C369,17.64,365.09,16.4,363,15.16Z"/><path class="cls-1" d="M460.52,30.14c14.09.08,20.5-1.94,19.74-5.95-.86-4.52-8.77-6.1-25.76-5.13,8.82-7.84,8.43-9.22-2.85-10.27,8.52-1.16,10.69,0,12.11,6.41,9.54-1.75,13.68-6,9.35-9.5S457.68.93,449.67,3.22a44.41,44.41,0,0,0-10.29,4.63c-4.28,2.48-7.71,5.22-11.93,7.72-3.52,2.09-8.27,3.51-15.17,3.28,9.68-1.25,12.73-4.94,17.66-8A83.62,83.62,0,0,1,445.44,3c3.42-1.26,9.25-1.72,14.09-1.84C466.84,1,472.87,2.47,476,5.41c3.3,3.13,1.75,6.06-3.43,8.6-2.11,1-4.74,1.88-7.59,3,10.22.73,17.54,2.6,18.63,7.19.62,2.6-1.11,4.87-6.6,6.28A31.53,31.53,0,0,1,460.52,30.14Z"/><path class="cls-1" d="M29,15.5c-1.15-6,1.62-7.57,11.62-6.72-5.81.29-10.48,1.24-9,4,1.12,2.13,3.54,4.14,5.18,6-4.8.1-10.67-.15-16,.43-6.11.67-9,2.89-8.89,5.6.12,3.91,6.29,5.66,18.35,5.25-3.51,1.46-9.14,1.84-13.88.79-5.89-1.3-8.5-3.5-8-6.25.82-4.66,7.89-6.81,18.9-7.57l-4.83-1.74C14.33,12.35,12.1,8,16.84,4.73S32,0,41.29,1.82A69.41,69.41,0,0,1,55.58,6.57c3.28,1.44,5,3.5,7.88,5.14C68,14.33,73,16.83,76.84,18.9a23.12,23.12,0,0,1-12.08-3.24C60.08,13,56.53,9.89,51.64,7.27A44.55,44.55,0,0,0,39,2.62C30.62,1,21.44,3,18.29,6.35S19.27,13.58,29,15.5Z"/><path class="cls-2" d="M47.71,99.89l-7.4-45.42h5.27L50.46,87.1l6.11-32.46h4.48l6.17,32.63L72,54.47h5.16L69.86,99.89h-4.6L58.92,66.24,52.53,99.89Z"/><path class="cls-2" d="M82.7,99.89V54.47H89V74.09H100.7V54.47H107V99.89H100.7V78.63H89V99.89Z"/><path class="cls-2" d="M111.69,99.89l9.64-45.42h6.11l9.7,45.42h-6l-2.07-11.44h-9.25l-2.19,11.44Zm9-16h7.57l-3.82-20.46Z"/><path class="cls-2" d="M144.94,99.89V59.18h-7.69V54.47h21.48v4.71h-7.46V99.89Z"/><path class="cls-2" d="M181.83,99.89l-7.4-45.42h5.27l4.88,32.63,6.11-32.46h4.48l6.17,32.63,4.77-32.8h5.16L204,99.89h-4.6L193,66.24l-6.39,33.65Z"/><path class="cls-2" d="M217.16,99.89V54.47h6.22V99.89Z"/><path class="cls-2" d="M230.72,99.89V54.47h6.34V95.34h11.61v4.55Z"/><path class="cls-2" d="M253,99.89V54.47h6.34V95.34h11.61v4.55Z"/><path class="cls-2" d="M295,99.89v-16l-9.82-29.38h5.89l6.95,21.92,6.84-21.92h6l-9.76,29.38v16Z"/><path class="cls-2" d="M326.66,100.39a13.33,13.33,0,0,1-7.35-1.79,9.83,9.83,0,0,1-3.92-5.13,23.45,23.45,0,0,1-1.18-7.83V68.43a21.9,21.9,0,0,1,1.21-7.71,9.58,9.58,0,0,1,3.92-4.93,13.62,13.62,0,0,1,7.32-1.72A13.33,13.33,0,0,1,334,55.81a9.82,9.82,0,0,1,3.89,4.94,21.64,21.64,0,0,1,1.21,7.68V85.7a22.47,22.47,0,0,1-1.21,7.74A10.26,10.26,0,0,1,334,98.57,12.9,12.9,0,0,1,326.66,100.39Zm0-5a6,6,0,0,0,3.81-1,5.12,5.12,0,0,0,1.74-2.91,19.09,19.09,0,0,0,.45-4.4V67.14a18.41,18.41,0,0,0-.45-4.35,4.87,4.87,0,0,0-1.74-2.8,6.26,6.26,0,0,0-3.81-1,6.4,6.4,0,0,0-3.84,1,4.81,4.81,0,0,0-1.77,2.8,18.41,18.41,0,0,0-.45,4.35V87.05a19.09,19.09,0,0,0,.45,4.4,5.06,5.06,0,0,0,1.77,2.91A6.12,6.12,0,0,0,326.66,95.4Z"/><path class="cls-2" d="M357,100.39q-4.94,0-7.57-2a9.8,9.8,0,0,1-3.59-5.53,32.56,32.56,0,0,1-.95-8.32V54.47h6.06V84.86a33.58,33.58,0,0,0,.39,5.33A7.09,7.09,0,0,0,353,94,6.31,6.31,0,0,0,361,94a7.3,7.3,0,0,0,1.69-3.81,33.58,33.58,0,0,0,.39-5.33V54.47h6V84.58a32.09,32.09,0,0,1-1,8.32,9.81,9.81,0,0,1-3.56,5.53C362.8,99.74,360.28,100.39,357,100.39Z"/><path class="cls-2" d="M399.38,100.45a11.45,11.45,0,0,1-6.81-1.83,10.15,10.15,0,0,1-3.7-5.3A26.6,26.6,0,0,1,387.72,85V69.78a30,30,0,0,1,1-8.5,9.51,9.51,0,0,1,3.7-5.35q2.66-1.86,7.43-1.86a14.24,14.24,0,0,1,6.86,1.43,8.4,8.4,0,0,1,3.79,4.38,20.05,20.05,0,0,1,1.18,7.43V69h-6v-1.4a24.61,24.61,0,0,0-.39-4.85,4.54,4.54,0,0,0-1.6-2.81A6.25,6.25,0,0,0,400,59a5.5,5.5,0,0,0-4.07,1.29,6.08,6.08,0,0,0-1.57,3.5,37.74,37.74,0,0,0-.3,5V85.64a26,26,0,0,0,.47,5.44,5.49,5.49,0,0,0,1.82,3.25,6,6,0,0,0,3.82,1.07A5.59,5.59,0,0,0,404,94.22a6.21,6.21,0,0,0,1.85-3.47,27.1,27.1,0,0,0,.5-5.72V81.89h-5.77V77.4h11.49V99.89h-4l-.61-5.22a9.56,9.56,0,0,1-2.81,4.15A7.89,7.89,0,0,1,399.38,100.45Z"/><path class="cls-2" d="M418.56,99.89V54.47h17.6v4.71H424.89v15H434v4.49h-9.14V95.34h11.39v4.55Z"/><path class="cls-2" d="M446.37,99.89V59.18h-7.68V54.47h21.47v4.71H452.7V99.89Z"/></g></g></svg>