<svg xmlns="http://www.w3.org/2000/svg" viewBox="0 0 1463.29 234.74"><defs><style>.cls-1{fill:#f15a24;}</style></defs><title>ZEITGEIST CENTRE ORANGE</title><g id="Layer_2" data-name="Layer 2"><g id="Layer_1-2" data-name="Layer 1"><path class="cls-1" d="M101,91.08a25.84,25.84,0,0,0,1.4,9.42,13,13,0,0,0,3.38,5.2,8.32,8.32,0,0,0,4.78,2.81,16,16,0,0,1-6.47-1.12,13,13,0,0,1-3.94-2.53,8.64,8.64,0,0,1-2.53-3.66L48.14,129v55.38L75.4,195.1V167q-9-.86-13.21-4.64a19.62,19.62,0,0,1-5.62-7.73A20.25,20.25,0,0,1,56,143.93a15.81,15.81,0,0,0,1.4,6.89,16.64,16.64,0,0,0,3.66,5.06A15.16,15.16,0,0,0,65.71,159a11.46,11.46,0,0,0,4.35,1q9.56,0,14.9-4.22a52.63,52.63,0,0,0,9.14-9.13q3.8-4.92,7.31-9.14a11.63,11.63,0,0,1,9.42-4.22,19,19,0,0,0-5.06,4.5,19.18,19.18,0,0,0-3.38,6,24.51,24.51,0,0,0-1.4,8.58V180.2a11.46,11.46,0,0,0,4.21,9,27.41,27.41,0,0,0-15.74,3.93,89.12,89.12,0,0,0-14.34,10.12,167.37,167.37,0,0,0-14.9,15.18q-10.68-4.5-18.83-8.15-3.66-1.41-6.89-2.95c-2.16-1-4.17-2-6-3q-3.11-1.41-5.91-2.53a29,29,0,0,0-7.31-1.69,19.84,19.84,0,0,0-6.18.42,10,10,0,0,0-5.34,3.23,21.1,21.1,0,0,1,4.5-5.62,22.29,22.29,0,0,1,5.9-4.07,18.55,18.55,0,0,1,8.43-1.83V121.44a11.62,11.62,0,0,1-3.93-3.37,12.71,12.71,0,0,1-2-3.93,13.58,13.58,0,0,1-.84-4.78,8.48,8.48,0,0,0,2.25,3.09,14,14,0,0,0,2.24,1.4,3.19,3.19,0,0,0,2.25.29L75.4,84.34V43.57L48.14,33.17V48.35a9.55,9.55,0,0,0,3.37,6,13.16,13.16,0,0,0,5.06,3H52.91q-8.14,0-13.21,4.78T30.14,72a42.67,42.67,0,0,1-9.55,8.15q-5.07,3.09-12.94,0a14,14,0,0,0,5.63,0,8.41,8.41,0,0,0,4.78-2.81,17.68,17.68,0,0,0,3.23-6.75,45,45,0,0,0,1.26-11.81v-11Q10.75,44.15,6.11,38A29.66,29.66,0,0,1,.34,25.86,30.61,30.61,0,0,1,1.75,11.24a23,23,0,0,0-.56,10A20.76,20.76,0,0,0,4.7,29.75a18.74,18.74,0,0,0,7.31,6A24.8,24.8,0,0,0,22.83,38,25.53,25.53,0,0,0,38.3,33.22,66.48,66.48,0,0,0,49.54,22.91a97.9,97.9,0,0,0,9.28-15,11,11,0,0,0,4.78,3.94L101,26.14a19.65,19.65,0,0,0,8.71.29,13.21,13.21,0,0,0,5.91-2.82c1.87-1.49,2.81-3.93,2.81-7.3a13.08,13.08,0,0,1-.57,7.59,26,26,0,0,1-5.06,6.88q-3.65,3.8-11.8,6.89Z"/><path class="cls-1" d="M241.54,16.31A13,13,0,0,1,241,23.9a26,26,0,0,1-5.06,6.88q-3.66,3.8-11.81,6.89v10.4a8.57,8.57,0,0,0,3.24,6.33,14.3,14.3,0,0,0,5.2,3h-3.66q-8.14,0-13.21,4.78T206.12,72a46,46,0,0,1-9.55,8.29q-5.07,3.24-12.94.14a14,14,0,0,0,5.63,0,8.12,8.12,0,0,0,4.77-3,19,19,0,0,0,3.24-6.89,45,45,0,0,0,1.26-11.81V43.57l-27.27-10.4v76.47l13.22-16.59A7.19,7.19,0,0,1,189,90.24a6.77,6.77,0,0,1,5.06.84L207,97.83a6.85,6.85,0,0,0,7.31-.28L216,96.42,201.34,115a6,6,0,0,1-3.37,2.11,5.41,5.41,0,0,1-3.94-.71l-11.8-6.18a7.29,7.29,0,0,0-4.92-.56,7,7,0,0,0-4.08,2.25l-2,2.25V184.7l27.27,10.68V176.83a10.23,10.23,0,0,0-3.37-7.88l-1.41-1.4q10.41,0,16-5.2a35.18,35.18,0,0,0,8.43-11.53,48,48,0,0,0,3.66-11.52c.56-3.47,1.3-5.2,2.24-5.2v46.1a11.47,11.47,0,0,0,4.22,9,27.39,27.39,0,0,0-15.74,3.93,89.12,89.12,0,0,0-14.34,10.12,166.05,166.05,0,0,0-14.9,15.18q-10.68-4.5-18.83-8.15-3.66-1.41-6.89-2.95c-2.16-1-4.17-2-6-3q-3.1-1.41-5.91-2.53a38.51,38.51,0,0,0-7.31-1.41,23.32,23.32,0,0,0-6.18.28,9.23,9.23,0,0,0-5.34,3.09,21.26,21.26,0,0,1,4.49-5.62,22.53,22.53,0,0,1,5.91-4.07,18.55,18.55,0,0,1,8.43-1.83V140.56a12.37,12.37,0,0,0-2.11-4.64,8.1,8.1,0,0,0-4.35-2.95l-3.66-1.4,3.66-1.41a8.1,8.1,0,0,0,4.35-3,12.37,12.37,0,0,0,2.11-4.64V48.07q-11.81-3.65-16.44-10a30.56,30.56,0,0,1-5.77-12.23,30.61,30.61,0,0,1,1.41-14.62,23.9,23.9,0,0,0-.56,10.27,20,20,0,0,0,3.51,8.57,19.1,19.1,0,0,0,7.31,5.9A24.38,24.38,0,0,0,146,38.23a25.25,25.25,0,0,0,15.46-4.78,66.56,66.56,0,0,0,11.25-10.4A99.48,99.48,0,0,0,182,7.87a11,11,0,0,0,4.78,3.94l37.38,14.33a19.7,19.7,0,0,0,8.72.29,13.13,13.13,0,0,0,5.9-2.82C240.6,22.12,241.54,19.68,241.54,16.31Z"/><path class="cls-1" d="M331.5,165.81a23.69,23.69,0,0,1,4.5,3.37,11.36,11.36,0,0,1,2.81,4.5,14.44,14.44,0,0,0-11.95-1.54,26.1,26.1,0,0,0-11.81,7.73,45.23,45.23,0,0,0-9,15.6,65.22,65.22,0,0,0-3.51,22.35,3.83,3.83,0,0,1,1.68-.28,4.8,4.8,0,0,1,3.8,1.82,5.14,5.14,0,0,1,1.26,4.08,4.85,4.85,0,0,1-4.5,4.5,5.11,5.11,0,0,1-4.07-1.27,4.77,4.77,0,0,1-1.83-3.79v-82.6q-.84-5.34-6.47-7.31l-3.65-1.4,3.65-1.41q5.63-2,6.47-7.31V52.29a12.54,12.54,0,0,0-4.5-9.84L282.3,32.05a5.76,5.76,0,0,0-4.21-1.55,6.69,6.69,0,0,0-3.94,1.55l-2,2q-2.25,2.25-4.49,4.63c-1.51,1.6-3,3.24-4.5,4.92A125.53,125.53,0,0,0,255,54.82c-.57,1.12-1.13,2.2-1.69,3.23s-1.13,2.11-1.69,3.23c-.38.94-.75,2-1.12,3.1s-.75,2.34-1.13,3.65a20.87,20.87,0,0,0-.84,3.38c-.19,1.12-.38,2.34-.56,3.65V79l.28.28V80.4a3.91,3.91,0,0,0,.28,1.69l.84,3.37a4.87,4.87,0,0,1,.57,1.41l.56.84a.53.53,0,0,0,.14.42.61.61,0,0,1,.14.42,15.39,15.39,0,0,0,4.5,4.78,10.89,10.89,0,0,0,5.9,2.53,14.63,14.63,0,0,0,6.47.28,19,19,0,0,0,5.76-1.4,23.34,23.34,0,0,0,4.92-2.81,26,26,0,0,0,6.46-7.31,15.37,15.37,0,0,0,.85-2,13.88,13.88,0,0,1,.84-2,7.5,7.5,0,0,0,.84-3.37,7.13,7.13,0,0,0,.57-2.67,6.65,6.65,0,0,1,.28-2.11v0a20.89,20.89,0,0,1-.14,2.11q-.15,1.26-.42,2.67c-.38,1.5-.66,2.72-.85,3.65a6.32,6.32,0,0,0-.84,1.83,6.62,6.62,0,0,1-.84,1.83,24.83,24.83,0,0,1-2.68,4.21,20,20,0,0,1-3.79,3.66,25.7,25.7,0,0,1-11,4.78,14.93,14.93,0,0,1-6.47-.28,15.23,15.23,0,0,1-6.47-2.53c-.94-.75-1.87-1.55-2.81-2.39a10.11,10.11,0,0,1-2.25-2.95l-.56-.57-.28-.84L248,86c-.19-.74-.38-1.4-.57-2s-.37-1.13-.56-1.69a6.16,6.16,0,0,0-.28-2V79l-.28-.29V74.78a22.12,22.12,0,0,1,.28-3.66,35.16,35.16,0,0,1,.84-3.65c.38-1.31.75-2.53,1.13-3.66s.75-2.24,1.12-3.37l3.38-6.75q2-3.09,3.93-6t4.22-5.76c1.5-1.87,2.95-3.66,4.36-5.34s2.85-3.28,4.35-4.78l4.36-4.36a41.3,41.3,0,0,1,4.36-3.8,144.07,144.07,0,0,1,13.77-11.52q2.82-2.25,3.94-3.09a4.58,4.58,0,0,0,1.13-.85l.28-.28,1.12,1.69q6.18,5.63,11.81,10.4,4.77,3.95,10,7.73a40.25,40.25,0,0,0,8.85,5.2,6.44,6.44,0,0,0-3.65,2.39,6.52,6.52,0,0,0-1.41,4.08V163A27.58,27.58,0,0,1,331.5,165.81Z"/><path class="cls-1" d="M857.5,165.81a23.69,23.69,0,0,1,4.5,3.37,11.36,11.36,0,0,1,2.81,4.5,14.44,14.44,0,0,0-11.95-1.54,26.1,26.1,0,0,0-11.81,7.73,45.23,45.23,0,0,0-9,15.6,65.22,65.22,0,0,0-3.51,22.35,3.83,3.83,0,0,1,1.68-.28,4.8,4.8,0,0,1,3.8,1.82,5.14,5.14,0,0,1,1.26,4.08,4.85,4.85,0,0,1-4.5,4.5,5.11,5.11,0,0,1-4.07-1.27,4.77,4.77,0,0,1-1.83-3.79v-82.6q-.84-5.34-6.47-7.31l-3.65-1.4,3.65-1.41q5.63-2,6.47-7.31V52.29a12.54,12.54,0,0,0-4.5-9.84L808.3,32.05a5.76,5.76,0,0,0-4.21-1.55,6.69,6.69,0,0,0-3.94,1.55l-2,2q-2.25,2.25-4.49,4.63c-1.51,1.6-3,3.24-4.5,4.92A125.53,125.53,0,0,0,781,54.82c-.57,1.12-1.13,2.2-1.69,3.23s-1.13,2.11-1.69,3.23c-.38.94-.75,2-1.12,3.1s-.75,2.34-1.13,3.65a20.87,20.87,0,0,0-.84,3.38c-.19,1.12-.38,2.34-.56,3.65V79l.28.28V80.4a3.91,3.91,0,0,0,.28,1.69l.84,3.37a4.87,4.87,0,0,1,.57,1.41l.56.84a.53.53,0,0,0,.14.42.61.61,0,0,1,.14.42,15.39,15.39,0,0,0,4.5,4.78,10.89,10.89,0,0,0,5.9,2.53,14.63,14.63,0,0,0,6.47.28,19,19,0,0,0,5.76-1.4,23.34,23.34,0,0,0,4.92-2.81,26,26,0,0,0,6.46-7.31,15.37,15.37,0,0,0,.85-2,13.88,13.88,0,0,1,.84-2,7.5,7.5,0,0,0,.84-3.37,7.13,7.13,0,0,0,.57-2.67,6.65,6.65,0,0,1,.28-2.11v0a20.89,20.89,0,0,1-.14,2.11q-.15,1.26-.42,2.67c-.38,1.5-.66,2.72-.85,3.65a6.32,6.32,0,0,0-.84,1.83,6.62,6.62,0,0,1-.84,1.83,24.83,24.83,0,0,1-2.68,4.21,20,20,0,0,1-3.79,3.66,25.7,25.7,0,0,1-11,4.78,14.93,14.93,0,0,1-6.47-.28,15.23,15.23,0,0,1-6.47-2.53c-.94-.75-1.87-1.55-2.81-2.39a10.11,10.11,0,0,1-2.25-2.95l-.56-.57-.28-.84L774,86c-.19-.74-.38-1.4-.57-2s-.37-1.13-.56-1.69a6.16,6.16,0,0,0-.28-2V79l-.28-.29V74.78a22.12,22.12,0,0,1,.28-3.66,35.16,35.16,0,0,1,.84-3.65c.38-1.31.75-2.53,1.13-3.66s.75-2.24,1.12-3.37l3.38-6.75q2-3.09,3.93-6t4.22-5.76c1.5-1.87,2.95-3.66,4.36-5.34s2.85-3.28,4.35-4.78l4.36-4.36a41.3,41.3,0,0,1,4.36-3.8,144.07,144.07,0,0,1,13.77-11.52q2.82-2.25,3.94-3.09a4.58,4.58,0,0,0,1.13-.85l.28-.28,1.12,1.69q6.18,5.63,11.81,10.4,4.77,3.95,10,7.73a40.25,40.25,0,0,0,8.85,5.2,6.44,6.44,0,0,0-3.65,2.39,6.52,6.52,0,0,0-1.41,4.08V163A27.58,27.58,0,0,1,857.5,165.81Z"/><path class="cls-1" d="M500.45,0,486.12,27.83a9.41,9.41,0,0,1-9,5.62H444.23v88.28a9.37,9.37,0,0,0,1.83,5.62,8.62,8.62,0,0,0,4.92,3.37,8.45,8.45,0,0,0-4.92,3.52,10,10,0,0,0-1.83,5.76v50.6l1.12,1.13a8.29,8.29,0,0,0,5.2,2.1,7.12,7.12,0,0,0,5.21-1.82l2.24-2q0,1.41-3.09,4.5l-7,7q-3.93,3.94-7.59,8.3a22.71,22.71,0,0,0-4.78,8.57l-16.86-15.74V140a9.53,9.53,0,0,0-2-5.76,7.89,7.89,0,0,0-5.06-3.24v-.28q7-2,7-9V61.28a12.28,12.28,0,0,0-1.83-6.6,11.1,11.1,0,0,0-4.92-4.36l-2.53-1.12q13.77,0,19.54-5.06t5.76-10.69H388.29q-16.32,0-25.87,7.73T350.47,59.46q-2.39,10.54,3,21.36t18.83,17.29a33.77,33.77,0,0,1-14.62-6.18Q352,88,347.52,80.12T343,58.75a71.16,71.16,0,0,1,1.82-17.14,51.43,51.43,0,0,1,4.92-12.8,39.63,39.63,0,0,1,6.89-9.13,36.58,36.58,0,0,1,8-5.91,49,49,0,0,1,21.93-5.9H486.68A11.93,11.93,0,0,0,494,5.34Z"/><path class="cls-1" d="M653.1,16.31a13.08,13.08,0,0,1-.56,7.59,26.23,26.23,0,0,1-5.06,6.88q-3.66,3.8-11.81,6.89v10.4a8.57,8.57,0,0,0,3.24,6.33,15.07,15.07,0,0,0,4.92,3h-3.38q-8.16,0-13.21,4.78T617.68,72a45.77,45.77,0,0,1-9.56,8.29q-5.05,3.24-12.93.14a13.31,13.31,0,0,0,5.48,0,9,9,0,0,0,4.78-2.81A16.16,16.16,0,0,0,608.83,71a42.08,42.08,0,0,0,1.26-11.38v-16l-27.27-10.4v75.34q7-7,9.56-11.66c1.69-3.1,2.62-4.73,2.81-4.92A11.12,11.12,0,0,0,600,95.86l35.7,13.5a6.91,6.91,0,0,0,8-1.83q1.55-1.55,1.83-5.48a13.76,13.76,0,0,1,.56,6.74,17.1,17.1,0,0,1-2.67,6.33q-2.1,3.24-7.73,6v59a11,11,0,0,0,4.22,9,26.54,26.54,0,0,0-10.68,1.68,50.51,50.51,0,0,0-10.26,5.2,76.21,76.21,0,0,0-9.28,7.17q-4.36,3.93-7.59,7.17t-7.17,8q-10.68-4.5-18.84-8.15c-2.43-.94-4.73-1.92-6.88-2.95s-4.18-2-6.05-3q-3.09-1.41-5.9-2.53-18.84-10.12-30.08-6.47t-11.25,19.68q0,7,2.82,10.82a19.72,19.72,0,0,0,6.46,5.77,27.2,27.2,0,0,0,9.28,3.09,22.9,22.9,0,0,1-14.2-4.36,22.66,22.66,0,0,1-8-11.1,29.34,29.34,0,0,1-1-14.34A30.58,30.58,0,0,1,518,190.6a40.66,40.66,0,0,1,15-11.1q9.56-4.37,24.18-4.36v-34a8.81,8.81,0,0,0-6.47-8.15l-3.65-1.4,3.65-1.41a8.81,8.81,0,0,0,6.47-8.15V52.29a12.54,12.54,0,0,0-4.5-9.84l-12.09-10.4q-4.21-3.93-8.15,0l-2,2q-2.25,2.25-4.5,4.63t-4.49,4.92a127.5,127.5,0,0,0-8.16,11.25q-.84,1.41-1.68,3.09c-.56,1.13-1.13,2.25-1.69,3.37-.38.94-.75,2-1.12,3.1s-.75,2.34-1.13,3.65a20.87,20.87,0,0,0-.84,3.38c-.19,1.12-.38,2.34-.56,3.65V79l.28.28v.84a4.8,4.8,0,0,0,.28,2l.84,3.37a4.71,4.71,0,0,1,.56,1.41l.57.84a.53.53,0,0,0,.14.42.61.61,0,0,1,.14.42,15.39,15.39,0,0,0,4.5,4.78,10.86,10.86,0,0,0,5.9,2.53,14.6,14.6,0,0,0,6.46.28,19.14,19.14,0,0,0,5.77-1.4,23.34,23.34,0,0,0,4.92-2.81,26,26,0,0,0,6.46-7.31,15.37,15.37,0,0,0,.85-2,13.88,13.88,0,0,1,.84-2,7.5,7.5,0,0,0,.84-3.37,7.13,7.13,0,0,0,.57-2.67,6.65,6.65,0,0,1,.28-2.11v0a20.89,20.89,0,0,1-.14,2.11c-.1.84-.24,1.73-.43,2.67-.37,1.5-.65,2.72-.84,3.65a6.32,6.32,0,0,0-.84,1.83,6.37,6.37,0,0,1-.85,1.83,24.18,24.18,0,0,1-2.67,4.21A20,20,0,0,1,537,92.49a25.69,25.69,0,0,1-11,4.78,14.89,14.89,0,0,1-6.46-.28,15.18,15.18,0,0,1-6.47-2.53c-.94-.75-1.87-1.55-2.81-2.39A10.11,10.11,0,0,1,508,89.12c-.19-.19-.28-.33-.28-.43s-.09-.23-.28-.42l-.28-.56a13.88,13.88,0,0,1-.84-2l-.57-1.68c-.18-.57-.37-1.13-.56-1.69a4.8,4.8,0,0,0-.28-2V79l-.28-.29V74.78a22.12,22.12,0,0,1,.28-3.66,35.16,35.16,0,0,1,.84-3.65c.38-1.31.75-2.53,1.13-3.66s.75-2.24,1.12-3.37c.57-1.31,1.13-2.48,1.69-3.51s1.12-2.11,1.69-3.24q2-3.09,3.93-6t4.22-5.76c1.5-1.87,2.95-3.66,4.36-5.34s2.85-3.28,4.35-4.78l4.36-4.36a41.3,41.3,0,0,1,4.36-3.8,144.07,144.07,0,0,1,13.77-11.52q2.82-2.25,3.94-3.09a4.37,4.37,0,0,0,1.12-.85l.28-.28,1.13,1.69,21.08,19.68a53.48,53.48,0,0,0,8-8,46.87,46.87,0,0,0,4.49-6.74,38.92,38.92,0,0,0,2.67-6.61,11.14,11.14,0,0,0,4.78,3.94l37.39,14.33a19.7,19.7,0,0,0,8.72.29,13.13,13.13,0,0,0,5.9-2.82C652.16,22.12,653.1,19.68,653.1,16.31ZM582.82,116.67v68l27.27,10.4v-68Z"/><path class="cls-1" d="M776.23,16.31a13,13,0,0,1-.56,7.59,26.23,26.23,0,0,1-5.06,6.88q-3.66,3.8-11.81,6.89v10.4A8.57,8.57,0,0,0,762,54.4a14.3,14.3,0,0,0,5.2,3h-3.66q-8.15,0-13.21,4.78T740.81,72a45.77,45.77,0,0,1-9.56,8.29q-5.06,3.24-12.93.14a14,14,0,0,0,5.62,0,8.11,8.11,0,0,0,4.78-3A19,19,0,0,0,732,70.56a45,45,0,0,0,1.26-11.81V43.57L706,33.17v76.47l13.22-16.59a7.19,7.19,0,0,1,4.49-2.81,6.78,6.78,0,0,1,5.06.84l12.94,6.75a6.85,6.85,0,0,0,7.31-.28l1.68-1.13L736,115a6,6,0,0,1-3.37,2.11,5.41,5.41,0,0,1-3.94-.71l-11.8-6.18a7.3,7.3,0,0,0-4.92-.56,7,7,0,0,0-4.08,2.25l-2,2.25V184.7l27.27,10.68V176.83a10.23,10.23,0,0,0-3.37-7.88l-1.41-1.4q10.39,0,16-5.2a35.18,35.18,0,0,0,8.43-11.53,47.45,47.45,0,0,0,3.65-11.52c.57-3.47,1.31-5.2,2.25-5.2v46.1a11.47,11.47,0,0,0,4.22,9,27.39,27.39,0,0,0-15.74,3.93,89.12,89.12,0,0,0-14.34,10.12A166.05,166.05,0,0,0,718,218.43q-10.68-4.5-18.83-8.15-3.66-1.41-6.89-2.95c-2.16-1-4.17-2-6.05-3q-3.09-1.41-5.9-2.53a38.66,38.66,0,0,0-7.31-1.41,23.32,23.32,0,0,0-6.18.28,9.23,9.23,0,0,0-5.34,3.09,21.26,21.26,0,0,1,4.49-5.62,22.53,22.53,0,0,1,5.91-4.07,18.55,18.55,0,0,1,8.43-1.83V140.56a12.37,12.37,0,0,0-2.11-4.64A8.09,8.09,0,0,0,673.9,133l-3.65-1.4,3.65-1.41a8.09,8.09,0,0,0,4.36-3,12.37,12.37,0,0,0,2.11-4.64V48.07q-11.8-3.65-16.45-10a30.66,30.66,0,0,1-5.76-12.23,30.61,30.61,0,0,1,1.41-14.62A23.9,23.9,0,0,0,659,21.51a20,20,0,0,0,3.51,8.57,19.1,19.1,0,0,0,7.31,5.9,24.38,24.38,0,0,0,10.82,2.25,25.25,25.25,0,0,0,15.46-4.78,66.56,66.56,0,0,0,11.25-10.4,100.28,100.28,0,0,0,9.28-15.18,11.05,11.05,0,0,0,4.77,3.94L758.8,26.14a19.7,19.7,0,0,0,8.72.29,13.13,13.13,0,0,0,5.9-2.82C775.29,22.12,776.23,19.68,776.23,16.31Z"/><path class="cls-1" d="M999.16,16.31a13.16,13.16,0,0,1-.56,7.59,26.23,26.23,0,0,1-5.06,6.88q-3.66,3.8-11.81,6.89v10.4a8.74,8.74,0,0,0,3.09,6.33,13.16,13.16,0,0,0,5.06,3h-3.37q-8.16,0-13.35,4.78a134,134,0,0,0-9.7,9.84A44.21,44.21,0,0,1,954,80.12q-4.92,3.09-12.79,0a13.31,13.31,0,0,0,5.48,0,9,9,0,0,0,4.78-2.81,16.24,16.24,0,0,0,3.37-6.75,44.54,44.54,0,0,0,1.27-11.81V43.57l-27.27-10.4V84.34l52.85,29.8a3.19,3.19,0,0,0,2.25-.29,14.53,14.53,0,0,0,2.25-1.4,8.84,8.84,0,0,0,2.25-3.09,13.37,13.37,0,0,1-.85,4.78,12.9,12.9,0,0,1-2,3.93,11.66,11.66,0,0,1-3.94,3.37V180.2a10.92,10.92,0,0,0,4.22,9,26.59,26.59,0,0,0-10.69,1.68,51,51,0,0,0-10.26,5.2,76.88,76.88,0,0,0-9.27,7.17q-4.37,3.93-7.59,7.17t-7.17,8L903.3,201.85a29.12,29.12,0,0,0-7.31-1.69,19.89,19.89,0,0,0-6.19.42,10,10,0,0,0-5.34,3.23,21.3,21.3,0,0,1,4.5-5.62,23.3,23.3,0,0,1,5.76-4.07,18.38,18.38,0,0,1,8.58-1.83V167q-11.25-1.12-16.45-4.92t-7.17-7.73A19.4,19.4,0,0,1,878,143.93a11.57,11.57,0,0,0,2.1,6.89,18.62,18.62,0,0,0,5.2,4.92,29.37,29.37,0,0,0,6.33,3.09,16.52,16.52,0,0,0,5.2,1.13q10.13.57,15.6-3.66a52.1,52.1,0,0,0,9.42-9.27c2.62-3.38,5.06-6.51,7.31-9.42a11.1,11.1,0,0,1,9.28-4.36,15.63,15.63,0,0,0-4.78,4.5,19.18,19.18,0,0,0-3.38,6,24.51,24.51,0,0,0-1.4,8.58v32l27.27,10.68V129L906.67,101.2a8.55,8.55,0,0,1-2.53,3.66,13,13,0,0,1-3.94,2.53,16,16,0,0,1-6.46,1.12,9.83,9.83,0,0,0,4.78-2.81,17.1,17.1,0,0,0,3.23-5.2,23.76,23.76,0,0,0,1.55-9.42v-43q-11.82-3.65-16.59-10a29.66,29.66,0,0,1-5.9-12.23,30.61,30.61,0,0,1,1.4-14.62,23.48,23.48,0,0,0-.56,10.13,21,21,0,0,0,3.51,8.57,18.61,18.61,0,0,0,7.31,6,25.11,25.11,0,0,0,11.11,2.25A26.07,26.07,0,0,0,919,33.45a54.59,54.59,0,0,0,11.24-10.4,85.52,85.52,0,0,0,9-15.18,12.37,12.37,0,0,0,5.06,3.94l37.39,14.33a19.66,19.66,0,0,0,8.71.29,13.21,13.21,0,0,0,5.91-2.82C998.22,22.12,999.16,19.68,999.16,16.31Z"/><path class="cls-1" d="M1161.36,0,1147,27.83a9.41,9.41,0,0,1-9,5.62h-32.89v88.28a9.37,9.37,0,0,0,1.83,5.62,8.62,8.62,0,0,0,4.92,3.37,8.45,8.45,0,0,0-4.92,3.52,10,10,0,0,0-1.83,5.76v50.6l1.12,1.13a8.29,8.29,0,0,0,5.2,2.1,7.12,7.12,0,0,0,5.21-1.82l2.24-2q0,1.41-3.09,4.5l-7,7q-3.93,3.94-7.59,8.3a22.71,22.71,0,0,0-4.78,8.57l-16.86-15.74V140a9.53,9.53,0,0,0-2-5.76,7.89,7.89,0,0,0-5.06-3.24v-.28q7-2,7-9V61.28a12.28,12.28,0,0,0-1.83-6.6,11.1,11.1,0,0,0-4.92-4.36l-2.53-1.12q13.77,0,19.54-5.06t5.76-10.69H1049.2q-16.32,0-25.87,7.73t-12,18.28q-2.39,10.54,3,21.36t18.83,17.29a33.77,33.77,0,0,1-14.62-6.18q-5.62-3.95-10.12-11.81t-4.49-21.37a71.16,71.16,0,0,1,1.82-17.14,51.43,51.43,0,0,1,4.92-12.8,39.63,39.63,0,0,1,6.89-9.13,36.58,36.58,0,0,1,8-5.91,49,49,0,0,1,21.93-5.9h100.08a11.93,11.93,0,0,0,7.31-2.53Z"/><path class="cls-1" d="M1176.54,56.79a73.16,73.16,0,0,0,1.13-8.72,44,44,0,0,0,0-6.89,8,8,0,0,0-2-5.2l-10.12-10.4,17.15-17.71,17.15,17.71Z"/><path class="cls-1" d="M1347.46,198.15q-18.27-14.9-39.07-14.9-24.47,0-42.73,14.34,1.11-9.84,1.54-19.4t.71-20.24l.28-18q.55-11.52,5.34-17.15,4.77-5.06,15.18-9.56a27.5,27.5,0,0,1,3.23-1.26c1.41-.47,3.23-1.17,5.48-2.11l3.1-1.13h-.29l.57-.28h.84q1.69,0,10.12-3.37,17.43-6.75,17.43-14.06V50.84l-2.25-.56q-10.68,14.34-26.42,14.34-13.21,0-22.77-6.19-13.23-8.15-13.22-23.89a25.81,25.81,0,0,0,14.9,4.21q14.89,0,27.55-16,6.46,10.41,22.77,16a83.2,83.2,0,0,0,27,4.5h.56l.57-.28h4.21l.28-.28H1366q-6.19,6.18-6.19,11.53V93.57q0,1.7,4.22,10.12-17.43,1.69-42.17,9.84-28.11,9.85-34.86,18a13.94,13.94,0,0,0-3.09,6.75h.28v22.49a9.36,9.36,0,0,1-.14,1.41,13.54,13.54,0,0,0-.14,2.25,16.66,16.66,0,0,1-.14,2,19.57,19.57,0,0,0-.14,2.53,18.75,18.75,0,0,0-.28,3.1v2q18.56-20.24,41.32-20.24,18.84,0,37.11,13.5l5.06-5.63,7.87,7Z"/><path class="cls-1" d="M1431.52,197.87q-11.8-14.06-31.77-14.06-10.68,0-12.93,3.1l-7.87-4.22c1.31-1.69,2.76-3.51,4.35-5.48s2.86-3.42,3.8-4.36l.84-.84a39.59,39.59,0,0,1,18.84-12.65v-95c0-2.63-1.13-5.39-3.37-8.3a16.21,16.21,0,0,0-7.6-5.76l-4.21-.84c-1.88-.38-3.84-.75-5.9-1.13V39.88a6.45,6.45,0,0,1,1,.14,5.14,5.14,0,0,0,1,.14,6.16,6.16,0,0,0,2,.28,11.54,11.54,0,0,0,3.94-.84q19.67-5.34,29.8-16,13.2,8.16,13.21,35.71V158c.56.19,1.07.38,1.54.56s1.45.57,3,1.13h-.28a13.41,13.41,0,0,1,4.21,2.25q2.25,1.68,5.34,3.93l5.91-6.46,7,7.59Z"/></g></g></svg>