<svg xmlns="http://www.w3.org/2000/svg" viewBox="0 0 272.5 130.5"><defs><style>.cls-1,.cls-2{fill:#6664b0;}.cls-1{stroke:#6664b0;stroke-miterlimit:10;stroke-width:2px;}</style></defs><title>Zeitgeist</title><g id="Layer_2" data-name="Layer 2"><g id="Layer_1-2" data-name="Layer 1"><path class="cls-1" d="M69.69,117.71c-1-.26-3.59-.42-4.13-1.16-.9-1.23-.5-2.83-.67-4.55-.34,0-1.51-.08-2.68-.08H28a9.2,9.2,0,0,1-2.94-.13c-1-.45-2.17-1.27-2.11-1.89s1.47-1.4,2.53-1.6a27.94,27.94,0,0,1,4.86-.09H243.68c2.35,0,5.79-.57,5.9,1.71.11,2.44-3.42,2-5.94,2-12.29,0-24.57,0-35.95,0-.37,1.8-.21,3.55-1.24,5-.47.63-3.31.6-4.49.78,1.53-.91,3.87-1.68,4.41-2.78.8-1.61-1.9-2.89-5.87-2.91-12.54-.07-25.09,0-37.63,0H75.57c-1.26,0-2.52,0-3.77,0-2.77.13-5.78.56-5.61,2.6C66.28,115.64,68.48,116.67,69.69,117.71Z"/><path class="cls-1" d="M14.19,105.23c-8-.06-11.66,1.62-11.23,5,.49,3.77,5,5.08,14.65,4.27-5,6.53-4.79,7.68,1.63,8.55-4.85,1-6.08,0-6.89-5.34-5.43,1.46-7.78,5-5.32,7.91s8.78,4,13.33,2.07a22.84,22.84,0,0,0,5.86-3.86c2.43-2.06,4.38-4.34,6.78-6.43a11.65,11.65,0,0,1,8.63-2.73c-5.51,1.05-7.24,4.12-10,6.67a45,45,0,0,1-8.82,6.53c-1.95,1-5.26,1.43-8,1.53-4.16.15-7.6-1.09-9.36-3.54s-1-5,1.95-7.16c1.2-.86,2.7-1.56,4.32-2.49-5.82-.6-10-2.16-10.6-6C.72,108,1.7,106.13,4.82,105A12.5,12.5,0,0,1,14.19,105.23Z"/><path class="cls-1" d="M259.69,117.42c.66,5-.92,6.3-6.61,5.6,3.31-.25,6-1,5.14-3.34a30,30,0,0,0-3-5,71.68,71.68,0,0,0,9.12-.35c3.47-.56,5.1-2.41,5.05-4.66-.06-3.26-3.57-4.72-10.43-4.38a10.14,10.14,0,0,1,7.89-.65c3.35,1.08,4.84,2.91,4.56,5.2-.46,3.88-4.49,5.67-10.74,6.3l2.74,1.45c4.55,2.43,5.82,6,3.12,8.77s-8.63,4-13.9,2.42a31.66,31.66,0,0,1-8.13-4c-1.87-1.2-2.85-2.91-4.49-4.28-2.6-2.18-5.41-4.27-7.61-6a10.13,10.13,0,0,1,6.88,2.7c2.65,2.25,4.68,4.81,7.46,7a21.21,21.21,0,0,0,7.18,3.87c4.77,1.33,10-.28,11.79-3.11S265.2,119,259.69,117.42Z"/><path class="cls-1" d="M202.8,12.79c1,.25,3.6.42,4.13,1.15.91,1.24.51,2.84.68,4.55.34,0,1.5.08,2.67.08h34.25a8.9,8.9,0,0,1,2.94.14c1,.44,2.17,1.27,2.11,1.89S248.11,22,247,22.2a27.91,27.91,0,0,1-4.86.1q-106.68,0-213.36,0c-2.36,0-5.8.58-5.9-1.71-.11-2.44,3.42-2,5.94-2,12.28,0,24.57,0,36,0,.36-1.8.2-3.54,1.24-4.95.47-.64,3.31-.6,4.48-.79-1.53.92-3.86,1.68-4.41,2.79-.79,1.61,1.9,2.89,5.88,2.91,12.54.07,25.08,0,37.63,0q43.65,0,87.3,0c1.25,0,2.51,0,3.76,0,2.77-.13,5.79-.55,5.62-2.59C206.22,14.86,204,13.82,202.8,12.79Z"/><path class="cls-1" d="M258.31,25.26c8,.07,11.65-1.61,11.22-5-.48-3.77-5-5.08-14.65-4.27,5-6.53,4.8-7.68-1.62-8.55,4.84-1,6.08,0,6.89,5.33,5.42-1.45,7.78-5,5.32-7.91s-8.78-4-13.34-2.06a22.75,22.75,0,0,0-5.85,3.85c-2.44,2.07-4.39,4.35-6.79,6.43a11.62,11.62,0,0,1-8.63,2.73c5.51-1,7.24-4.11,10-6.67a44.34,44.34,0,0,1,8.82-6.52c1.94-1,5.26-1.43,8-1.53,4.16-.15,7.59,1.08,9.36,3.54s1,5-2,7.16c-1.2.86-2.7,1.56-4.32,2.48,5.81.61,10,2.17,10.6,6,.35,2.16-.63,4.06-3.76,5.23A12.43,12.43,0,0,1,258.31,25.26Z"/><path class="cls-1" d="M12.8,13.07c-.66-5,.92-6.3,6.61-5.59-3.31.24-6,1-5.13,3.34a29.51,29.51,0,0,0,3,5,71.76,71.76,0,0,0-9.12.36c-3.48.55-5.1,2.4-5.06,4.66.07,3.25,3.58,4.71,10.44,4.37a10.14,10.14,0,0,1-7.89.66C2.24,24.74.76,22.91,1,20.63c.47-3.89,4.49-5.67,10.75-6.3L9,12.88c-4.54-2.43-5.82-6-3.12-8.78s8.64-4,13.91-2.42a32,32,0,0,1,8.13,4c1.87,1.21,2.85,2.92,4.48,4.29,2.6,2.18,5.41,4.26,7.62,6a10.12,10.12,0,0,1-6.88-2.7c-2.66-2.25-4.68-4.8-7.46-7a21.17,21.17,0,0,0-7.19-3.87C13.75,1,8.53,2.63,6.74,5.46S7.29,11.47,12.8,13.07Z"/><path class="cls-2" d="M34.07,87V82.43L47.41,46.09H34.91V41.55H54.14V44.3L40.07,82.43H54.14V87Z"/><path class="cls-2" d="M58.85,87V41.55H76.46v4.71H65.19v15h9.14v4.49H65.19V82.43H76.57V87Z"/><path class="cls-2" d="M82,87V41.55h6.22V87Z"/><path class="cls-2" d="M100.57,87V46.26H92.89V41.55h21.47v4.71H106.9V87Z"/><path class="cls-2" d="M129.56,87.53a11.53,11.53,0,0,1-6.82-1.82,10.25,10.25,0,0,1-3.7-5.3,26.94,26.94,0,0,1-1.15-8.35V56.86a30.32,30.32,0,0,1,1-8.5,9.59,9.59,0,0,1,3.7-5.35,12.91,12.91,0,0,1,7.43-1.85,14.31,14.31,0,0,1,6.87,1.43A8.28,8.28,0,0,1,140.71,47a20.09,20.09,0,0,1,1.18,7.43v1.68H136v-1.4a24.68,24.68,0,0,0-.39-4.85A4.61,4.61,0,0,0,134,47a6.23,6.23,0,0,0-3.79-.93,5.48,5.48,0,0,0-4.06,1.29,6,6,0,0,0-1.57,3.51,36,36,0,0,0-.31,5V72.73a25.93,25.93,0,0,0,.48,5.44,5.42,5.42,0,0,0,1.82,3.25,6,6,0,0,0,3.81,1.06,5.6,5.6,0,0,0,3.81-1.17A6.21,6.21,0,0,0,136,77.83a27,27,0,0,0,.51-5.72V69h-5.78V64.49h11.5V87h-4l-.62-5.21a9.51,9.51,0,0,1-2.8,4.14A7.84,7.84,0,0,1,129.56,87.53Z"/><path class="cls-2" d="M148.73,87V41.55h17.61v4.71H155.07v15h9.14v4.49h-9.14V82.43h11.38V87Z"/><path class="cls-2" d="M171.89,87V41.55h6.22V87Z"/><path class="cls-2" d="M196.17,87.48a11.8,11.8,0,0,1-6.53-1.69,10.61,10.61,0,0,1-4-4.65,19.23,19.23,0,0,1-1.57-6.9l5.61-1.51a24.27,24.27,0,0,0,.76,4.65,8.22,8.22,0,0,0,1.93,3.67,4.89,4.89,0,0,0,3.76,1.43,4.82,4.82,0,0,0,3.73-1.37,5.63,5.63,0,0,0,1.26-4,8.11,8.11,0,0,0-1.4-5,26.07,26.07,0,0,0-3.54-3.79l-7.62-6.73a12.8,12.8,0,0,1-3.31-4.29,13.76,13.76,0,0,1-1.07-5.75c0-3.32,1-5.9,2.86-7.73a10.81,10.81,0,0,1,7.8-2.75,14.6,14.6,0,0,1,4.74.7A8.41,8.41,0,0,1,203,44a10.68,10.68,0,0,1,2.18,3.67,21,21,0,0,1,1.1,5.19l-5.39,1.46a21.76,21.76,0,0,0-.67-4.12,6,6,0,0,0-1.77-3,6.12,6.12,0,0,0-7.29.11A5,5,0,0,0,189.89,51a7.35,7.35,0,0,0,.7,3.42,9.88,9.88,0,0,0,2.27,2.75l7.68,6.72a24,24,0,0,1,4.54,5.36,13.5,13.5,0,0,1,2,7.37,11.42,11.42,0,0,1-1.41,5.81,9.36,9.36,0,0,1-3.84,3.72A11.84,11.84,0,0,1,196.17,87.48Z"/><path class="cls-2" d="M217,87V46.26h-7.68V41.55h21.47v4.71H223.3V87Z"/></g></g></svg>