<svg xmlns="http://www.w3.org/2000/svg" viewBox="0 0 491.91 156.33"><defs><style>.cls-1,.cls-2{fill:#6664b0;}.cls-1{stroke:#6664b0;stroke-miterlimit:10;stroke-width:2px;}</style></defs><title>Explore Workshop</title><g id="Layer_2" data-name="Layer 2"><g id="Layer_1-2" data-name="Layer 1"><path class="cls-1" d="M125.42,141.17c-1.84-.31-6.51-.5-7.49-1.39-1.63-1.48-.91-3.41-1.22-5.46-.61,0-2.73-.1-4.84-.1h-62c-1.81,0-4.09.2-5.32-.16-1.78-.54-3.93-1.53-3.82-2.27s2.66-1.68,4.59-1.92a75.28,75.28,0,0,1,8.8-.11q193.22,0,386.44,0c4.27,0,10.5-.69,10.69,2,.2,2.93-6.2,2.37-10.76,2.38-22.25,0-44.5,0-65.11,0-.66,2.16-.38,4.26-2.25,5.95-.85.76-6,.72-8.12.94,2.77-1.1,7-2,8-3.34,1.45-1.93-3.44-3.47-10.63-3.5-22.72-.08-45.44,0-68.16,0H136.05c-2.27,0-4.55,0-6.81,0-5,.15-10.48.66-10.17,3.11C119.23,138.68,123.22,139.93,125.42,141.17Z"/><path class="cls-1" d="M24.89,126.19c-14.51-.09-21.12,1.94-20.33,5.95.88,4.52,9,6.1,26.53,5.13C22,145.11,22.4,146.49,34,147.54c-8.78,1.16-11,0-12.47-6.41-9.83,1.74-14.1,6-9.64,9.5s15.9,4.77,24.15,2.47a46.73,46.73,0,0,0,10.6-4.62c4.41-2.48,7.94-5.22,12.29-7.72,3.63-2.09,8.52-3.51,15.63-3.28-10,1.25-13.11,4.94-18.19,8a87.34,87.34,0,0,1-16,7.83c-3.53,1.26-9.53,1.72-14.51,1.84-7.54.18-13.76-1.3-17-4.25-3.39-3.12-1.8-6,3.54-8.6,2.17-1,4.88-1.88,7.82-3-10.53-.73-18.07-2.61-19.2-7.19-.64-2.6,1.14-4.88,6.8-6.28A33.33,33.33,0,0,1,24.89,126.19Z"/><path class="cls-1" d="M469.54,140.83c1.19,6-1.66,7.56-12,6.72,6-.3,10.79-1.24,9.29-4-1.15-2.13-3.65-4.14-5.33-6,4.94-.1,11,.16,16.52-.43,6.29-.66,9.23-2.88,9.15-5.59-.12-3.91-6.48-5.66-18.9-5.26,3.61-1.46,9.41-1.83,14.29-.78,6.07,1.3,8.76,3.5,8.27,6.24-.84,4.67-8.13,6.82-19.47,7.57l5,1.74c8.23,2.92,10.54,7.23,5.64,10.54s-15.64,4.78-25.18,2.91a72.69,72.69,0,0,1-14.72-4.75c-3.39-1.44-5.17-3.5-8.12-5.15-4.71-2.62-9.8-5.12-13.79-7.18a24.29,24.29,0,0,1,12.45,3.24c4.81,2.7,8.48,5.77,13.52,8.39a46.9,46.9,0,0,0,13,4.65c8.64,1.6,18.1-.34,21.34-3.74S479.52,142.75,469.54,140.83Z"/><path class="cls-1" d="M363,15.16c1.78.3,6.32.5,7.27,1.38C371.8,18,371.1,20,371.41,22c.58,0,2.64.1,4.7.1H436.3c1.76,0,4-.2,5.17.16,1.73.53,3.81,1.52,3.71,2.27s-2.58,1.68-4.46,1.92a73,73,0,0,1-8.54.11q-187.53,0-375.07,0c-4.15,0-10.19.69-10.37-2-.2-2.93,6-2.37,10.44-2.38,21.59,0,43.19,0,63.19,0,.65-2.16.37-4.26,2.19-5.95.82-.77,5.81-.73,7.87-.94-2.69,1.09-6.78,2-7.74,3.34C121.29,20.5,126,22,133,22.06c22.05.09,44.1.05,66.15.06H352.63c2.21,0,4.42,0,6.61,0,4.88-.15,10.17-.66,9.87-3.11C369,17.64,365.09,16.4,363,15.16Z"/><path class="cls-1" d="M460.52,30.14c14.09.08,20.5-1.94,19.74-5.95-.86-4.52-8.77-6.1-25.76-5.13,8.82-7.84,8.43-9.22-2.85-10.27,8.52-1.16,10.69,0,12.11,6.41,9.54-1.75,13.68-6,9.35-9.5S457.68.93,449.67,3.22a44.41,44.41,0,0,0-10.29,4.63c-4.28,2.48-7.71,5.22-11.93,7.72-3.52,2.09-8.27,3.51-15.17,3.28,9.68-1.25,12.73-4.94,17.66-8A83.62,83.62,0,0,1,445.44,3c3.42-1.26,9.25-1.72,14.09-1.84C466.84,1,472.87,2.47,476,5.41c3.3,3.13,1.75,6.06-3.43,8.6-2.11,1-4.74,1.88-7.59,3,10.22.73,17.54,2.6,18.63,7.19.62,2.6-1.11,4.87-6.6,6.28A31.53,31.53,0,0,1,460.52,30.14Z"/><path class="cls-1" d="M29,15.5c-1.15-6,1.62-7.57,11.62-6.72-5.81.29-10.48,1.24-9,4,1.12,2.13,3.54,4.14,5.18,6-4.8.1-10.67-.15-16,.43-6.11.67-9,2.89-8.89,5.6.12,3.91,6.29,5.66,18.35,5.25-3.51,1.46-9.14,1.84-13.88.79-5.89-1.3-8.5-3.5-8-6.25.82-4.66,7.89-6.81,18.9-7.57l-4.83-1.74C14.33,12.35,12.1,8,16.84,4.73S32,0,41.29,1.82A69.41,69.41,0,0,1,55.58,6.57c3.28,1.44,5,3.5,7.88,5.14C68,14.33,73,16.83,76.84,18.9a23.12,23.12,0,0,1-12.08-3.24C60.08,13,56.53,9.89,51.64,7.27A44.55,44.55,0,0,0,39,2.62C30.62,1,21.44,3,18.29,6.35S19.27,13.58,29,15.5Z"/><path class="cls-2" d="M21.78,99.89V54.47h17.6v4.71H28.11v15h9.14v4.49H28.11V95.34H39.49v4.55Z"/><path class="cls-2" d="M41.79,99.89l9.48-23.78L42,54.47h5.89l6.9,16,6.27-16h5.89L57.38,76.62l10,23.27H61.47l-7.4-17.11L47.68,99.89Z"/><path class="cls-2" d="M71.62,99.89V54.47H82.89A12.52,12.52,0,0,1,89.43,56,8.64,8.64,0,0,1,93,60.24,18.45,18.45,0,0,1,94.11,67a14.3,14.3,0,0,1-1.26,6.22,9.26,9.26,0,0,1-3.73,4.07A12.19,12.19,0,0,1,83,78.75H78V99.89ZM78,74.2h2.91a12.23,12.23,0,0,0,4.32-.61,3.87,3.87,0,0,0,2.24-2.16,11.17,11.17,0,0,0,.68-4.35,19.88,19.88,0,0,0-.48-5,3.49,3.49,0,0,0-2-2.41A12.29,12.29,0,0,0,80.93,59H78Z"/><path class="cls-2" d="M98.54,99.89V54.47h6.33V95.34h11.61v4.55Z"/><path class="cls-2" d="M132.07,100.39a13.33,13.33,0,0,1-7.35-1.79,9.83,9.83,0,0,1-3.92-5.13,23.45,23.45,0,0,1-1.18-7.83V68.43a22.14,22.14,0,0,1,1.2-7.71,9.65,9.65,0,0,1,3.93-4.93,13.62,13.62,0,0,1,7.32-1.72,13.33,13.33,0,0,1,7.29,1.74,9.82,9.82,0,0,1,3.89,4.94,21.64,21.64,0,0,1,1.21,7.68V85.7a22.47,22.47,0,0,1-1.21,7.74,10.26,10.26,0,0,1-3.89,5.13A12.9,12.9,0,0,1,132.07,100.39Zm0-5a6,6,0,0,0,3.81-1,5.12,5.12,0,0,0,1.74-2.91,19.09,19.09,0,0,0,.45-4.4V67.14a18.41,18.41,0,0,0-.45-4.35,4.87,4.87,0,0,0-1.74-2.8,6.26,6.26,0,0,0-3.81-1,6.36,6.36,0,0,0-3.84,1,4.81,4.81,0,0,0-1.77,2.8,18.41,18.41,0,0,0-.45,4.35V87.05a19.09,19.09,0,0,0,.45,4.4,5.06,5.06,0,0,0,1.77,2.91A6.08,6.08,0,0,0,132.07,95.4Z"/><path class="cls-2" d="M150.68,99.89V54.47h9.14a20.19,20.19,0,0,1,7.51,1.2,8.45,8.45,0,0,1,4.41,3.87,14.79,14.79,0,0,1,1.43,7,19.28,19.28,0,0,1-.56,4.8,9.35,9.35,0,0,1-1.8,3.64,7,7,0,0,1-3.25,2.16L174,99.89H167.9l-6-21.31H157V99.89ZM157,74h2.41a11.89,11.89,0,0,0,4.37-.68,4.46,4.46,0,0,0,2.47-2.3,10.68,10.68,0,0,0,.78-4.54c0-2.65-.48-4.57-1.45-5.74S162.7,59,159.82,59H157Z"/><path class="cls-2" d="M179.78,99.89V54.47h17.61v4.71H186.12v15h9.14v4.49h-9.14V95.34H197.5v4.55Z"/><path class="cls-2" d="M221.33,99.89l-7.4-45.42h5.27l4.88,32.63,6.11-32.46h4.49l6.16,32.63,4.77-32.8h5.16l-7.29,45.42h-4.6l-6.33-33.65-6.4,33.65Z"/><path class="cls-2" d="M267.48,100.39a13.33,13.33,0,0,1-7.35-1.79,9.83,9.83,0,0,1-3.92-5.13A23.45,23.45,0,0,1,255,85.64V68.43a22.14,22.14,0,0,1,1.2-7.71,9.65,9.65,0,0,1,3.93-4.93,13.62,13.62,0,0,1,7.32-1.72,13.33,13.33,0,0,1,7.29,1.74,9.82,9.82,0,0,1,3.89,4.94,21.64,21.64,0,0,1,1.21,7.68V85.7a22.47,22.47,0,0,1-1.21,7.74,10.26,10.26,0,0,1-3.89,5.13A12.9,12.9,0,0,1,267.48,100.39Zm0-5a6,6,0,0,0,3.81-1A5.12,5.12,0,0,0,273,91.45a19.09,19.09,0,0,0,.45-4.4V67.14a18.41,18.41,0,0,0-.45-4.35,4.87,4.87,0,0,0-1.74-2.8,6.26,6.26,0,0,0-3.81-1,6.36,6.36,0,0,0-3.84,1,4.81,4.81,0,0,0-1.77,2.8,18.41,18.41,0,0,0-.45,4.35V87.05a19.09,19.09,0,0,0,.45,4.4,5.06,5.06,0,0,0,1.77,2.91A6.08,6.08,0,0,0,267.48,95.4Z"/><path class="cls-2" d="M286.09,99.89V54.47h9.14a20.29,20.29,0,0,1,7.52,1.2,8.47,8.47,0,0,1,4.4,3.87,14.79,14.79,0,0,1,1.43,7,19.28,19.28,0,0,1-.56,4.8,9.35,9.35,0,0,1-1.8,3.64A7,7,0,0,1,303,77.12l6.45,22.77h-6.11l-5.95-21.31h-4.93V99.89ZM292.43,74h2.41a11.89,11.89,0,0,0,4.37-.68,4.46,4.46,0,0,0,2.47-2.3,10.66,10.66,0,0,0,.79-4.54c0-2.65-.49-4.57-1.46-5.74S298.11,59,295.23,59h-2.8Z"/><path class="cls-2" d="M315.19,99.89V54.47h6.34V75.89L332,54.47h5.89l-9,20,10.43,25.4h-6.16l-8.7-21.31-2.91,5.27v16Z"/><path class="cls-2" d="M353.66,100.39a11.8,11.8,0,0,1-6.53-1.68,10.58,10.58,0,0,1-4-4.66,19.44,19.44,0,0,1-1.57-6.89l5.61-1.52A24.51,24.51,0,0,0,348,90.3,8.27,8.27,0,0,0,349.9,94a4.93,4.93,0,0,0,3.76,1.43A4.84,4.84,0,0,0,357.39,94a5.67,5.67,0,0,0,1.26-4,8.13,8.13,0,0,0-1.4-5,26.55,26.55,0,0,0-3.54-3.78l-7.62-6.73a12.8,12.8,0,0,1-3.31-4.29,13.79,13.79,0,0,1-1.07-5.75c0-3.33,1-5.91,2.86-7.74a10.81,10.81,0,0,1,7.8-2.75,14.59,14.59,0,0,1,4.74.71,8.29,8.29,0,0,1,3.42,2.15,10.73,10.73,0,0,1,2.18,3.68,20.42,20.42,0,0,1,1.1,5.18l-5.39,1.46a21.89,21.89,0,0,0-.67-4.12,6.2,6.2,0,0,0-1.76-3A5.24,5.24,0,0,0,352.37,59a5,5,0,0,0-3.67,1.27,4.91,4.91,0,0,0-1.32,3.72,7.3,7.3,0,0,0,.7,3.42,9.91,9.91,0,0,0,2.27,2.75L358,76.84a24,24,0,0,1,4.54,5.36,13.5,13.5,0,0,1,2,7.37,11.38,11.38,0,0,1-1.41,5.8,9.38,9.38,0,0,1-3.84,3.73A11.84,11.84,0,0,1,353.66,100.39Z"/><path class="cls-2" d="M369.47,99.89V54.47h6.34V74.09h11.66V54.47h6.34V99.89h-6.34V78.63H375.81V99.89Z"/><path class="cls-2" d="M412.53,100.39a13.31,13.31,0,0,1-7.34-1.79,9.84,9.84,0,0,1-3.93-5.13,23.71,23.71,0,0,1-1.18-7.83V68.43a22.13,22.13,0,0,1,1.21-7.71,9.58,9.58,0,0,1,3.92-4.93,13.67,13.67,0,0,1,7.32-1.72,13.28,13.28,0,0,1,7.29,1.74,9.84,9.84,0,0,1,3.9,4.94,21.88,21.88,0,0,1,1.2,7.68V85.7a22.72,22.72,0,0,1-1.2,7.74,10.28,10.28,0,0,1-3.9,5.13A12.85,12.85,0,0,1,412.53,100.39Zm0-5a6,6,0,0,0,3.81-1,5.12,5.12,0,0,0,1.74-2.91,19.09,19.09,0,0,0,.45-4.4V67.14a18.41,18.41,0,0,0-.45-4.35,4.87,4.87,0,0,0-1.74-2.8,6.26,6.26,0,0,0-3.81-1,6.4,6.4,0,0,0-3.84,1,4.81,4.81,0,0,0-1.77,2.8,18.45,18.45,0,0,0-.44,4.35V87.05a19.13,19.13,0,0,0,.44,4.4,5.06,5.06,0,0,0,1.77,2.91A6.12,6.12,0,0,0,412.53,95.4Z"/><path class="cls-2" d="M431.15,99.89V54.47h11.27A12.48,12.48,0,0,1,449,56a8.59,8.59,0,0,1,3.56,4.29A18.25,18.25,0,0,1,453.63,67a14.3,14.3,0,0,1-1.26,6.22,9.14,9.14,0,0,1-3.73,4.07,12.17,12.17,0,0,1-6.17,1.43h-5V99.89Zm6.33-25.69h2.92a12.23,12.23,0,0,0,4.32-.61A3.93,3.93,0,0,0,447,71.43a11.2,11.2,0,0,0,.67-4.35,20.45,20.45,0,0,0-.47-5,3.5,3.5,0,0,0-2-2.41,12.22,12.22,0,0,0-4.71-.67h-3Z"/><path class="cls-2" d="M468.77,100.39a11.82,11.82,0,0,1-6.53-1.68,10.5,10.5,0,0,1-3.95-4.66,19,19,0,0,1-1.57-6.89l5.6-1.52a25.32,25.32,0,0,0,.76,4.66A8.37,8.37,0,0,0,465,94a4.93,4.93,0,0,0,3.76,1.43A4.83,4.83,0,0,0,472.5,94a5.67,5.67,0,0,0,1.26-4,8.13,8.13,0,0,0-1.4-5,26.44,26.44,0,0,0-3.53-3.78L461.2,74.6a12.93,12.93,0,0,1-3.31-4.29,13.8,13.8,0,0,1-1.06-5.75q0-5,2.86-7.74a10.77,10.77,0,0,1,7.79-2.75,14.54,14.54,0,0,1,4.74.71,8.29,8.29,0,0,1,3.42,2.15,10.74,10.74,0,0,1,2.19,3.68,20.88,20.88,0,0,1,1.09,5.18l-5.38,1.46a22.71,22.71,0,0,0-.68-4.12,6.12,6.12,0,0,0-1.76-3A5.22,5.22,0,0,0,467.48,59a5.06,5.06,0,0,0-3.67,1.27,4.91,4.91,0,0,0-1.32,3.72,7.3,7.3,0,0,0,.7,3.42,10.09,10.09,0,0,0,2.27,2.75l7.68,6.73a24.07,24.07,0,0,1,4.55,5.36,13.58,13.58,0,0,1,2,7.37,11.48,11.48,0,0,1-1.4,5.8,9.5,9.5,0,0,1-3.84,3.73A11.91,11.91,0,0,1,468.77,100.39Z"/></g></g></svg>