<svg xmlns="http://www.w3.org/2000/svg" viewBox="0 0 826 320"><defs><style>.cls-1{fill:#5f6ebd;}.cls-2{fill:#fff;}</style></defs><title>Asset 3</title><g id="Layer_2" data-name="Layer 2"><g id="Layer_1-2" data-name="Layer 1"><rect class="cls-1" x="253" y="-253" width="320" height="826" rx="160" transform="translate(253 573) rotate(-90)"/><path class="cls-2" d="M150.06,194.52v-81.1H134.75V104h42.79v9.39H162.68v81.1Z"/><path class="cls-2" d="M186.25,194.52V104h35.08v9.39H198.87v29.93h18.21v8.94H198.87v33.18h22.68v9.05Z"/><path class="cls-2" d="M254.39,195.52q-9.6,0-14.91-4a20.66,20.66,0,0,1-7.37-10.83,52.22,52.22,0,0,1-2.07-15.2V133.52a55.16,55.16,0,0,1,2.07-16A19.3,19.3,0,0,1,239.48,107q5.31-3.73,14.91-3.74,8.49,0,13.46,3.13a17.38,17.38,0,0,1,7.15,8.94,39.62,39.62,0,0,1,2.18,14v7.15H265.23v-6.37a70.41,70.41,0,0,0-.5-8.88,9.71,9.71,0,0,0-2.74-6q-2.24-2.11-7.49-2.12c-3.57,0-6.18.77-7.82,2.29a11.25,11.25,0,0,0-3.18,6.48,58.22,58.22,0,0,0-.73,9.77v35.86a41.46,41.46,0,0,0,1.12,10.78,9.46,9.46,0,0,0,3.69,5.65,12.59,12.59,0,0,0,6.92,1.67q5.14,0,7.38-2.29a10.86,10.86,0,0,0,2.79-6.31,69.43,69.43,0,0,0,.56-9.38v-6.71h11.95v6.71a48,48,0,0,1-2,14.57,18.7,18.7,0,0,1-6.92,9.84Q263.33,195.52,254.39,195.52Z"/><path class="cls-2" d="M289.25,194.52V104h12.62v39.1h23.24V104h12.62v90.49H325.11V152.18H301.87v42.34Z"/><path class="cls-2" d="M377.5,194.52V104h35.08v9.39H390.12v29.93h18.21v8.94H390.12v33.18H412.8v9.05Z"/><path class="cls-2" d="M438.71,194.52,418.5,104h11.84l14.3,66.69L458.26,104h11.51l-20,90.49Z"/><path class="cls-2" d="M479.38,194.52V104h35.07v9.39H492v29.93h18.21v8.94H492v33.18h22.68v9.05Z"/><path class="cls-2" d="M524.84,194.52V104h8.6l25.7,60.1V104h10.5v90.49h-8l-26-61.78v61.78Z"/><path class="cls-2" d="M593.77,194.52v-81.1H578.46V104h42.79v9.39H606.39v81.1Z"/><path class="cls-2" d="M651.3,195.52q-7.81,0-13-3.35a21.06,21.06,0,0,1-7.88-9.27,38.44,38.44,0,0,1-3.13-13.74l11.17-3a50.92,50.92,0,0,0,1.51,9.28,16.53,16.53,0,0,0,3.86,7.31,9.76,9.76,0,0,0,7.48,2.85c3.28,0,5.75-.91,7.43-2.74s2.51-4.44,2.51-7.87q0-6.15-2.79-9.89a52,52,0,0,0-7-7.54l-15.19-13.4a25.53,25.53,0,0,1-6.59-8.55,27.38,27.38,0,0,1-2.13-11.45q0-9.94,5.7-15.42t15.53-5.47a29.13,29.13,0,0,1,9.44,1.4A16.55,16.55,0,0,1,665,109a21.2,21.2,0,0,1,4.35,7.31,41.34,41.34,0,0,1,2.18,10.34l-10.72,2.9a45.13,45.13,0,0,0-1.34-8.21,12.37,12.37,0,0,0-3.52-6q-2.52-2.3-7.21-2.29a10.18,10.18,0,0,0-7.32,2.51q-2.62,2.52-2.62,7.43a14.72,14.72,0,0,0,1.39,6.82,20.16,20.16,0,0,0,4.53,5.47L660,148.61a47.61,47.61,0,0,1,9,10.66A27,27,0,0,1,673,174a22.86,22.86,0,0,1-2.79,11.57,18.77,18.77,0,0,1-7.65,7.42A23.61,23.61,0,0,1,651.3,195.52Z"/></g></g></svg>